<?xml version="1.0" encoding="utf-8"?>
<!-- Generator: Adobe Illustrator 24.0.1, SVG Export Plug-In . SVG Version: 6.00 Build 0)  -->
<svg version="1.1" id="Layer_1" xmlns="http://www.w3.org/2000/svg" xmlns:xlink="http://www.w3.org/1999/xlink" x="0px" y="0px"
	 viewBox="0 0 32 32" style="enable-background:new 0 0 32 32;" xml:space="preserve">
<style type="text/css">
	.st0{fill:#253751;}
</style>
<path class="st0" d="M29.9,14.8c-0.1-1-0.4-2-0.9-2.9c-0.5-1.1-1.2-2-2-2.9c-1.8-1.8-4.3-2.9-7-2.9H2.8c-0.8,0-1.4,0.6-1.4,1.4
	S2.1,9,2.8,9h8.6c0.4,0,0.8,0.2,1.1,0.5c0.2,0.2,0.3,0.6,0.3,0.9c0,0.8-0.6,1.4-1.4,1.4H8.6c-0.8,0-1.4,0.6-1.4,1.4
	c0,0.8,0.6,1.4,1.4,1.4h2.9c0.8,0,1.4,0.6,1.4,1.4c0,0.8-0.6,1.4-1.4,1.4H2.8c-0.8,0-1.4,0.6-1.4,1.4s0.6,1.4,1.4,1.4h8.6
	c0.8,0,1.4,0.6,1.4,1.4c0,0.4-0.1,0.7-0.3,0.9c-0.3,0.3-0.7,0.5-1.1,0.5H8.6c-0.8,0-1.4,0.6-1.4,1.4s0.6,1.4,1.4,1.4H20
	c2.7,0,5.2-1.1,7-2.9c0.8-0.8,1.5-1.8,2-2.9c0.4-0.9,0.7-1.8,0.9-2.9c0.1-0.5,0.1-0.9,0.1-1.4C30,15.7,30,15.2,29.9,14.8z M17,15.2
	c-0.6-0.6-0.6-1.5,0-2l2-2c0.6-0.6,1.5-0.6,2,0c0.6,0.6,0.6,1.5,0,2l-2,2C18.4,15.7,17.5,15.7,17,15.2z M23,19.2l-2,2
	c-0.6,0.6-1.5,0.6-2,0c-0.6-0.6-0.6-1.5,0-2l2-2c0.6-0.6,1.5-0.6,2,0C23.6,17.8,23.6,18.7,23,19.2z"/>
<path class="st0" d="M2.8,14.8c0.8,0,1.4-0.6,1.4-1.4c0-0.8-0.6-1.4-1.4-1.4s-1.4,0.6-1.4,1.4C1.4,14.1,2.1,14.8,2.8,14.8z"/>
</svg>
