<svg width="16" height="13" viewBox="0 0 16 13" fill="none" xmlns="http://www.w3.org/2000/svg">
<path d="M6.42 9.98C6.42 10.8067 6.12001 11.5 5.52001 12.06C4.93334 12.62 4.22 12.9 3.38 12.9C2.52667 12.9 1.81334 12.62 1.24001 12.06C0.666672 11.5 0.380005 10.8067 0.380005 9.98C0.380005 9.64667 0.420005 9.28667 0.500005 8.9C0.580005 8.5 0.773338 7.98 1.08 7.34L4.32 0.440002H6.98001L5.34 7.78C5.67334 8.00667 5.93334 8.32 6.12001 8.72C6.32001 9.10667 6.42 9.52667 6.42 9.98ZM15.06 9.98C15.06 10.8067 14.7533 11.5 14.14 12.06C13.54 12.62 12.8333 12.9 12.02 12.9C11.1933 12.9 10.4867 12.62 9.90001 12.06C9.31334 11.5 9.02001 10.8067 9.02001 9.98C9.02001 9.64667 9.06001 9.28667 9.14001 8.9C9.22001 8.5 9.41334 7.98 9.72001 7.34L13.02 0.440002H15.62L14 7.78C14.32 8.00667 14.5733 8.32 14.76 8.72C14.96 9.10667 15.06 9.52667 15.06 9.98Z" fill="#FFD432"/>
</svg>
