<?xml version="1.0" encoding="utf-8"?>
<!-- Generator: Adobe Illustrator 24.0.1, SVG Export Plug-In . SVG Version: 6.00 Build 0)  -->
<svg version="1.1" id="Layer_1" xmlns="http://www.w3.org/2000/svg" xmlns:xlink="http://www.w3.org/1999/xlink" x="0px" y="0px"
	 viewBox="0 0 120 80" style="enable-background:new 0 0 120 80;" xml:space="preserve">

<g class="base">
	<polygon fill="#002050" points="48.6,29.4 50.6,32.7 51.6,32.7 53.6,29.3 53.6,33.4 55.6,33.4 55.6,25.6 53.8,25.6 51.1,30.1 
		48.4,25.6 46.6,25.6 46.6,33.4 48.6,33.4 	"/>
	<rect x="57.1" y="25.6" fill="#002050" width="2.2" height="7.9"/>
	<polygon fill="#002050" points="63,29.3 66.4,33.4 68.3,33.4 68.3,25.6 66.1,25.6 66.1,29.8 62.6,25.6 60.8,25.6 60.8,33.4 63,33.4 	
		"/>
	<rect x="69.8" y="25.6" fill="#002050" width="2.2" height="7.9"/>
	<path fill="#002050" d="M76.3,31.9c-0.9,0-1.9-0.3-2.6-0.8L73,32.7c0.7,0.5,2.1,0.9,3.3,0.9c2.3,0,3.4-1.1,3.4-2.5
		c0-2.9-4.4-2-4.4-3.2c0-0.4,0.4-0.7,1.3-0.7c0.7,0,1.5,0.2,2.2,0.6l0.7-1.6c-0.8-0.4-1.8-0.7-2.8-0.7c-2.3,0-3.4,1.1-3.4,2.5
		c0,2.9,4.5,2.1,4.5,3.3C77.6,31.6,77.2,31.9,76.3,31.9z"/>
	<path fill="#002050" d="M82,33.4h2.2v-6h2.4v-1.8h-7v1.8h2.4C82.1,27.3,82.1,33.4,82,33.4z"/>
	<polygon fill="#002050" points="92.9,23.3 90.8,23.3 89.3,25 90.8,25 	"/>
	<polygon fill="#002050" points="93.6,31.7 93.6,31.7 89.5,31.7 89.5,30.2 93,30.2 93,28.6 89.5,28.6 89.5,27.3 93.5,27.3 93.5,25.6 
		87.3,25.6 87.3,33.4 93.6,33.4 	"/>
	<path fill="#002050" d="M97,31.3h1.2l1.5,2.1h2.4l-1.7-2.5c1-0.5,1.5-1.3,1.5-2.5c0-1.8-1.4-2.9-3.5-2.9h-3.6v7.9H97V31.3z M97,27.3
		h1.2c0.9,0,1.4,0.4,1.4,1.1c0,0.7-0.5,1.1-1.4,1.1H97V27.3z"/>
	<rect x="103.2" y="25.6" fill="#002050" width="2.2" height="7.9"/>
	<path fill="#002050" d="M110.9,25.5c-2.5,0-4.4,1.7-4.4,4c0,2.4,1.8,4,4.4,4c2.5,0,4.4-1.7,4.4-4C115.2,27.2,113.4,25.5,110.9,25.5z
		 M110.9,31.7c-1.2,0-2.1-0.9-2.1-2.2s0.9-2.2,2.1-2.2c1.2,0,2.1,0.9,2.1,2.2C113,30.9,112,31.7,110.9,31.7z"/>
	<path fill="#002050" d="M51,39c0.7,0,1.3,0.3,1.8,0.9l1.4-1.3c-0.8-0.9-1.9-1.5-3.4-1.5c-2.5,0-4.3,1.7-4.3,4c0,2.4,1.8,4.1,4.3,4
		c1.5,0,2.6-0.5,3.4-1.5l-1.4-1.3c-0.5,0.6-1.1,0.9-1.8,0.9c-1.3,0-2.2-0.9-2.2-2.2S49.7,39,51,39z"/>
	<path fill="#002050" d="M57.6,43.1h1.2l1.5,2.1h2.4l-1.7-2.5c1-0.5,1.5-1.3,1.5-2.5c0-1.8-1.4-2.9-3.5-2.9h-3.6v7.9h2.2V43.1z
		 M57.6,39.1h1.2c0.9,0,1.4,0.4,1.4,1.1s-0.5,1.1-1.4,1.1h-1.2V39.1z"/>
	<rect x="63.8" y="37.3" fill="#002050" width="2.2" height="7.9"/>
	<path fill="#002050" d="M70.4,43.6c-0.9,0-1.9-0.3-2.6-0.8l-0.7,1.6c0.7,0.5,2,0.9,3.3,0.9c2.3,0,3.4-1.1,3.4-2.5c0-2.9-4.4-2-4.4-3.2
		c0-0.4,0.4-0.7,1.3-0.7c0.7,0,1.5,0.2,2.2,0.6l0.7-1.6c-0.8-0.4-1.8-0.7-2.8-0.7c-2.3,0-3.4,1.1-3.4,2.5c0,2.9,4.5,2.1,4.5,3.3
		C71.6,43.4,71.3,43.6,70.4,43.6z"/>
	<path fill="#002050" d="M78.3,45.1v-6h2.4v-1.8h-7v1.8h2.4c0,0,0,6.1-0.1,6H78.3z"/>
	<path fill="#002050" d="M81,41.2c0,2.4,1.9,4.1,4.4,4c2.5,0,4.4-1.7,4.4-4c0-2.4-1.9-4-4.4-4C82.8,37.2,81,38.9,81,41.2z M87.4,41.2
		c0,1.4-0.9,2.2-2.1,2.2c-1.2,0-2.1-0.9-2.1-2.2s0.9-2.2,2.1-2.2C86.5,39,87.4,39.9,87.4,41.2z"/>
	<polygon fill="#002050" points="100.4,43.5 100.4,43.4 96.3,43.4 96.3,42 99.8,42 99.8,40.3 96.3,40.3 96.3,39 100.2,39 100.2,37.3 
		94.1,37.3 94.1,45.2 100.4,45.2 	"/>
	<polygon fill="#002050" points="106.1,41.8 103.4,37.3 101.6,37.3 101.6,45.2 103.6,45.2 103.6,41.1 105.6,44.4 106.6,44.4 108.6,41 
		108.6,45.2 110.6,45.2 110.6,37.3 108.8,37.3 	"/>
	<path fill="#002050" d="M51.7,53c0,1.3-0.5,1.9-1.5,1.9c-1,0-1.5-0.5-1.5-1.9v-4.3h-2.2v4.4c0,2.3,1.4,3.6,3.7,3.6
		c2.3,0,3.7-1.3,3.7-3.6v-4.4h-2.2V53z"/>
	<polygon fill="#002050" points="60.9,52.9 57.4,48.7 55.6,48.7 55.6,56.6 57.8,56.6 57.8,52.4 61.2,56.6 63.1,56.6 63.1,48.7 
		60.9,48.7 	"/>
	<rect x="64.6" y="48.7" fill="#002050" width="2.2" height="7.9"/>
	<path fill="#002050" d="M72,48.7h-3.7v7.9H72c2.6,0,4.4-1.5,4.4-3.9S74.6,48.7,72,48.7z M71.9,54.8L71.9,54.8l-1.4,0.1v-4.3h1.4
		c1.3,0,2.2,0.8,2.2,2.1S73.3,54.8,71.9,54.8z"/>
	<path fill="#002050" d="M79.9,48.7l-3.4,7.9h2.2l0.6-1.5h3.3l0.6,1.5h2.3L82,48.7H79.9z M79.9,53.4l1-2.5l1,2.5H79.9z"/>
	<path fill="#002050" d="M90,48.7h-3.7v7.9H90c2.6,0,4.4-1.5,4.4-3.9S92.6,48.7,90,48.7z M90,54.8L90,54.8l-1.4,0.1v-4.3H90
		c1.3,0,2.2,0.8,2.2,2.1S91.3,54.8,90,54.8z"/>
	<polygon fill="#002050" points="97.6,53.3 101.1,53.3 101.1,51.7 97.6,51.7 97.6,50.4 101.5,50.4 101.5,48.7 95.3,48.7 95.3,56.5 
		101.6,56.5 101.6,54.8 101.6,54.8 97.6,54.8 	"/>
</g>

<g class="destaque">
	<defs>
		<circle id="SVGID_1_" cx="23.1" cy="39.9" r="18.1"/>
	</defs>
	<clipPath id="SVGID_2_">
		<use xlink:href="#SVGID_1_"  style="overflow:visible;"/>
	</clipPath>
	<g transform="matrix(1 0 0 1 0 0)" style="clip-path:url(#SVGID_2_);">
		
			<image style="overflow:visible;" width="190" height="195" xlink:href="4A62CB2A.jpg"  transform="matrix(0.1963 0 0 0.1963 4.4757 20.4954)">
		</image>
	</g>
</g>
</svg>
