<?xml version="1.0" encoding="utf-8"?>
<!-- Generator: Adobe Illustrator 24.0.1, SVG Export Plug-In . SVG Version: 6.00 Build 0)  -->
<svg version="1.1" xmlns="http://www.w3.org/2000/svg" xmlns:xlink="http://www.w3.org/1999/xlink" x="0px" y="0px"
	 viewBox="0 0 120 80" style="enable-background:new 0 0 120 80;" xml:space="preserve">
<style type="text/css">
	.st0{fill:#FDBD26;}
	.st1{fill:#314D7D;}
</style>
<g id="destaque">
	<g id="XMLID_382_">
		<g id="XMLID_798_">
			<path id="XMLID_846_" class="st0" d="M32.2,31.3V32h-1.8v4.9h-0.9V32h-0.8v-0.7h0.8v-0.5c0-0.6,0.2-1.1,0.5-1.4
				c0.3-0.3,0.7-0.5,1.3-0.5c0.2,0,0.4,0,0.5,0s0.3,0.1,0.4,0.1v0.7c-0.2,0-0.3-0.1-0.4-0.1c-0.1,0-0.3,0-0.4,0c-0.7,0-1,0.4-1,1.2
				v0.5H32.2z"/>
			<path id="XMLID_843_" class="st0" d="M34.1,32c-0.3,0.1-0.6,0.2-0.8,0.3L33,31.6c0.3-0.1,0.6-0.3,1-0.3c0.3-0.1,0.7-0.1,1.1-0.1
				c0.8,0,1.4,0.2,1.8,0.6c0.4,0.4,0.6,0.9,0.6,1.7v3.5h-0.8V36c-0.2,0.3-0.5,0.5-0.8,0.7c-0.3,0.2-0.8,0.3-1.3,0.3
				c-0.3,0-0.5,0-0.8-0.1c-0.3-0.1-0.5-0.2-0.7-0.3c-0.2-0.1-0.4-0.3-0.5-0.6c-0.1-0.2-0.2-0.5-0.2-0.8c0-0.3,0.1-0.6,0.2-0.8
				c0.1-0.2,0.3-0.4,0.5-0.6c0.2-0.2,0.5-0.3,0.8-0.3c0.3-0.1,0.6-0.1,1-0.1c0.4,0,0.7,0,1,0.1c0.3,0,0.5,0.1,0.8,0.2v-0.2
				c0-0.5-0.2-0.9-0.5-1.2C36,32,35.6,31.9,35,31.9C34.7,31.9,34.4,31.9,34.1,32z M33.8,34.3c-0.3,0.2-0.4,0.5-0.4,0.9
				c0,0.2,0,0.3,0.1,0.5c0.1,0.1,0.2,0.3,0.3,0.4c0.1,0.1,0.3,0.2,0.5,0.2c0.2,0.1,0.4,0.1,0.6,0.1c0.3,0,0.5,0,0.8-0.1
				c0.2-0.1,0.4-0.2,0.6-0.3c0.2-0.1,0.3-0.3,0.4-0.5c0.1-0.2,0.2-0.4,0.2-0.6v-0.5c-0.2-0.1-0.5-0.1-0.7-0.2
				c-0.3-0.1-0.6-0.1-1-0.1C34.5,34,34.1,34.1,33.8,34.3z"/>
			<path id="XMLID_841_" class="st0" d="M39.4,36.9v-8h0.9v8H39.4z"/>
			<path id="XMLID_838_" class="st0" d="M43.2,32c-0.3,0.1-0.6,0.2-0.8,0.3l-0.3-0.7c0.3-0.1,0.6-0.3,1-0.3c0.3-0.1,0.7-0.1,1.1-0.1
				c0.8,0,1.4,0.2,1.8,0.6c0.4,0.4,0.6,0.9,0.6,1.7v3.5h-0.8V36c-0.2,0.3-0.5,0.5-0.8,0.7c-0.3,0.2-0.8,0.3-1.3,0.3
				c-0.3,0-0.5,0-0.8-0.1c-0.3-0.1-0.5-0.2-0.7-0.3c-0.2-0.1-0.4-0.3-0.5-0.6c-0.1-0.2-0.2-0.5-0.2-0.8c0-0.3,0.1-0.6,0.2-0.8
				c0.1-0.2,0.3-0.4,0.5-0.6c0.2-0.2,0.5-0.3,0.8-0.3c0.3-0.1,0.6-0.1,1-0.1c0.4,0,0.7,0,1,0.1c0.3,0,0.5,0.1,0.8,0.2v-0.2
				c0-0.5-0.2-0.9-0.5-1.2c-0.3-0.3-0.7-0.4-1.3-0.4C43.8,31.9,43.5,31.9,43.2,32z M43,34.3c-0.3,0.2-0.4,0.5-0.4,0.9
				c0,0.2,0,0.3,0.1,0.5c0.1,0.1,0.2,0.3,0.3,0.4c0.1,0.1,0.3,0.2,0.5,0.2c0.2,0.1,0.4,0.1,0.6,0.1c0.3,0,0.5,0,0.8-0.1
				c0.2-0.1,0.4-0.2,0.6-0.3c0.2-0.1,0.3-0.3,0.4-0.5c0.1-0.2,0.2-0.4,0.2-0.6v-0.5c-0.2-0.1-0.5-0.1-0.7-0.2
				c-0.3-0.1-0.6-0.1-1-0.1C43.7,34,43.2,34.1,43,34.3z"/>
			<path id="XMLID_836_" class="st0" d="M49.3,36.9h-0.9v-5.7h0.9v1c0.2-0.3,0.4-0.6,0.8-0.8c0.3-0.2,0.7-0.3,1.2-0.3
				c0.4,0,0.7,0.1,0.9,0.2c0.3,0.1,0.5,0.3,0.7,0.5c0.2,0.2,0.3,0.4,0.4,0.7c0.1,0.3,0.2,0.6,0.2,0.9v3.5h-0.9v-3.3
				c0-0.5-0.1-0.9-0.4-1.2c-0.3-0.3-0.7-0.5-1.2-0.5c-0.2,0-0.5,0-0.7,0.1c-0.2,0.1-0.4,0.2-0.6,0.4c-0.2,0.2-0.3,0.3-0.4,0.6
				c-0.1,0.2-0.1,0.5-0.1,0.7V36.9z"/>
			<path id="XMLID_833_" class="st0" d="M59.8,36.9v-1.1c-0.1,0.2-0.3,0.3-0.4,0.5c-0.1,0.2-0.3,0.3-0.5,0.4
				c-0.2,0.1-0.4,0.2-0.6,0.3C58.1,37,57.9,37,57.6,37c-0.4,0-0.7-0.1-1-0.2c-0.3-0.1-0.6-0.3-0.9-0.6c-0.3-0.3-0.5-0.6-0.6-0.9
				c-0.2-0.4-0.2-0.8-0.2-1.2c0-0.5,0.1-0.9,0.2-1.2c0.2-0.4,0.4-0.7,0.6-0.9c0.3-0.3,0.6-0.4,0.9-0.6c0.3-0.1,0.7-0.2,1-0.2
				c0.3,0,0.5,0,0.7,0.1c0.2,0.1,0.4,0.2,0.6,0.3s0.3,0.2,0.5,0.4s0.3,0.3,0.4,0.5v-3.4h0.9v8H59.8z M59.7,33.2
				c-0.1-0.3-0.3-0.5-0.5-0.7c-0.2-0.2-0.4-0.3-0.7-0.4c-0.3-0.1-0.5-0.2-0.8-0.2c-0.3,0-0.6,0-0.8,0.1c-0.2,0.1-0.5,0.2-0.6,0.4
				c-0.2,0.2-0.3,0.4-0.4,0.7c-0.1,0.3-0.2,0.6-0.2,0.9c0,0.3,0.1,0.6,0.2,0.9c0.1,0.3,0.3,0.5,0.4,0.7c0.2,0.2,0.4,0.3,0.7,0.4
				c0.2,0.1,0.5,0.2,0.8,0.2c0.3,0,0.5-0.1,0.8-0.2s0.5-0.3,0.7-0.4c0.2-0.2,0.4-0.4,0.5-0.7c0.1-0.3,0.2-0.6,0.2-0.9
				S59.8,33.4,59.7,33.2z"/>
			<path id="XMLID_830_" class="st0" d="M67.9,35.2c-0.2,0.4-0.4,0.7-0.6,0.9c-0.3,0.3-0.6,0.5-1,0.6c-0.4,0.2-0.8,0.2-1.2,0.2
				c-0.4,0-0.8-0.1-1.2-0.2c-0.4-0.2-0.7-0.4-1-0.6c-0.3-0.3-0.5-0.6-0.6-0.9c-0.2-0.4-0.2-0.7-0.2-1.1c0-0.4,0.1-0.8,0.2-1.1
				c0.1-0.4,0.4-0.7,0.6-0.9c0.3-0.3,0.6-0.5,1-0.6c0.4-0.2,0.8-0.2,1.2-0.2c0.4,0,0.8,0.1,1.2,0.2c0.4,0.2,0.7,0.4,1,0.6
				c0.3,0.3,0.5,0.6,0.6,0.9c0.1,0.4,0.2,0.7,0.2,1.1C68.1,34.5,68.1,34.8,67.9,35.2z M67.1,33.2c-0.1-0.3-0.3-0.5-0.5-0.7
				c-0.2-0.2-0.4-0.4-0.7-0.5c-0.3-0.1-0.5-0.2-0.9-0.2c-0.3,0-0.6,0.1-0.9,0.2c-0.3,0.1-0.5,0.3-0.7,0.5c-0.2,0.2-0.3,0.4-0.4,0.7
				C63,33.5,63,33.7,63,34s0.1,0.6,0.2,0.9c0.1,0.3,0.3,0.5,0.4,0.7c0.2,0.2,0.4,0.4,0.7,0.5c0.3,0.1,0.5,0.2,0.9,0.2
				c0.3,0,0.6-0.1,0.9-0.2c0.3-0.1,0.5-0.3,0.7-0.5c0.2-0.2,0.3-0.4,0.4-0.7c0.1-0.3,0.2-0.6,0.2-0.9C67.3,33.8,67.2,33.5,67.1,33.2
				z"/>
			<path id="XMLID_826_" class="st0" d="M73.5,35.2c0.1,0.2,0.3,0.4,0.5,0.6c0.2,0.2,0.4,0.3,0.6,0.4c0.2,0.1,0.5,0.1,0.7,0.1
				c0.4,0,0.8-0.1,1-0.2c0.3-0.1,0.6-0.3,0.8-0.6l0.5,0.5c-0.3,0.3-0.6,0.6-1,0.8c-0.4,0.2-0.8,0.3-1.4,0.3c-0.4,0-0.8-0.1-1.1-0.2
				c-0.4-0.1-0.7-0.3-0.9-0.6c-0.3-0.3-0.5-0.6-0.6-0.9c-0.2-0.4-0.2-0.8-0.2-1.2c0-0.4,0.1-0.8,0.2-1.2c0.1-0.4,0.3-0.7,0.6-0.9
				c0.2-0.3,0.5-0.5,0.9-0.6c0.3-0.2,0.7-0.2,1.1-0.2c0.4,0,0.8,0.1,1.1,0.2c0.3,0.2,0.6,0.4,0.9,0.6c0.2,0.3,0.4,0.6,0.5,1
				c0.1,0.4,0.2,0.8,0.2,1.2c0,0,0,0.1,0,0.1s0,0.1,0,0.1h-4.6C73.3,34.7,73.4,34.9,73.5,35.2z M77,33.7c0-0.3-0.1-0.5-0.2-0.7
				c-0.1-0.2-0.2-0.4-0.4-0.6c-0.2-0.2-0.3-0.3-0.6-0.4c-0.2-0.1-0.5-0.2-0.8-0.2c-0.3,0-0.5,0-0.7,0.1c-0.2,0.1-0.4,0.2-0.6,0.4
				c-0.2,0.2-0.3,0.4-0.4,0.6c-0.1,0.2-0.2,0.5-0.2,0.8H77z"/>
			<path id="XMLID_824_" class="st0" d="M84.2,31.8c0.1-0.1,0.3-0.3,0.4-0.4c0.2-0.1,0.4-0.2,0.6-0.2s0.4-0.1,0.7-0.1
				c0.7,0,1.2,0.2,1.6,0.6c0.4,0.4,0.6,1,0.6,1.7v3.5h-0.9v-3.3c0-0.5-0.1-1-0.4-1.3c-0.3-0.3-0.6-0.4-1.1-0.4c-0.2,0-0.4,0-0.6,0.1
				c-0.2,0.1-0.4,0.2-0.5,0.3c-0.1,0.1-0.3,0.3-0.3,0.6c-0.1,0.2-0.1,0.5-0.1,0.7v3.3h-0.9v-3.3c0-0.5-0.1-0.9-0.4-1.2
				c-0.3-0.3-0.6-0.4-1.1-0.4c-0.2,0-0.4,0-0.6,0.1c-0.2,0.1-0.4,0.2-0.5,0.4c-0.1,0.2-0.3,0.3-0.3,0.6c-0.1,0.2-0.1,0.5-0.1,0.7
				v3.2h-0.9v-5.7h0.9v1c0.1-0.1,0.2-0.3,0.3-0.4c0.1-0.1,0.2-0.2,0.4-0.3c0.1-0.1,0.3-0.2,0.5-0.2c0.2-0.1,0.4-0.1,0.7-0.1
				c0.5,0,0.9,0.1,1.2,0.3c0.3,0.2,0.5,0.5,0.7,0.8C83.9,32.1,84.1,31.9,84.2,31.8z"/>
		</g>
		<g id="XMLID_765_">
			<rect id="XMLID_772_" x="13.5" y="28.8" class="st0" width="2.4" height="3.7"/>
			<polygon id="XMLID_769_" class="st0" points="21.4,32.5 21.4,35.1 14.3,35.1 14.3,38.5 21.4,38.5 21.4,43.9 25.6,43.9 25.6,28.8 
				18.5,28.8 18.5,32.5 			"/>
			<rect id="XMLID_766_" x="15.9" y="26.1" class="st0" width="2.6" height="2.7"/>
		</g>
	</g>
</g>
<g id="base">
	<g id="XMLID_779_">
		<path id="XMLID_796_" class="st1" d="M28.7,40.1h8.8v2.7h-5.8v1.9H37v2.5h-5.2v3.9h-3.1V40.1z"/>
		<path id="XMLID_794_" class="st1" d="M39,40.1h3.1v11H39V40.1z"/>
		<path id="XMLID_792_" class="st1" d="M44.1,40.1h2.9l4.5,5.8v-5.8h3v11h-2.7l-4.7-6.1v6.1h-3V40.1z"/>
		<path id="XMLID_789_" class="st1" d="M60.3,40h3l4.7,11.1h-3.3l-0.8-2h-4.3l-0.8,2h-3.2L60.3,40z M63,46.8l-1.2-3.1l-1.2,3.1H63z"
			/>
		<path id="XMLID_787_" class="st1" d="M69,40.1h2.9l4.5,5.8v-5.8h3v11h-2.7l-4.7-6.1v6.1h-3V40.1z"/>
		<path id="XMLID_785_" class="st1" d="M84.1,52.9l1.2-1.7c-2.5-0.6-4.3-2.8-4.3-5.5v0c0-3.2,2.5-5.7,5.8-5.7c2.3,0,3.7,0.9,4.7,2.3
			L89.2,44c-0.6-0.8-1.4-1.3-2.4-1.3c-1.5,0-2.6,1.3-2.6,2.9v0c0,1.7,1.1,3,2.6,3c1.2,0,1.8-0.5,2.5-1.3l2.3,1.6
			c-0.9,1.3-2.2,2.3-4.3,2.5l-0.9,2.5L84.1,52.9z"/>
		<path id="XMLID_782_" class="st1" d="M96.8,40h3l4.7,11.1h-3.3l-0.8-2h-4.3l-0.8,2h-3.2L96.8,40z M99.4,46.8l-1.2-3.1L97,46.8
			H99.4z"/>
		<path id="XMLID_780_" class="st1" d="M104.5,49.5l1.7-2c1.1,0.9,2.3,1.3,3.6,1.3c0.8,0,1.3-0.3,1.3-0.8v0c0-0.5-0.4-0.7-1.9-1.1
			c-2.4-0.5-4.2-1.2-4.2-3.5v0c0-2.1,1.6-3.5,4.3-3.5c1.9,0,3.3,0.5,4.5,1.5l-1.5,2.2c-1-0.7-2.1-1.1-3.1-1.1
			c-0.7,0-1.1,0.3-1.1,0.7v0c0,0.5,0.4,0.7,1.9,1.1c2.5,0.6,4.1,1.4,4.1,3.4v0c0,2.3-1.8,3.6-4.5,3.6
			C107.7,51.3,105.8,50.7,104.5,49.5z"/>
	</g>
	<rect id="XMLID_778_" x="15.5" y="47.3" class="st1" width="2.4" height="3.7"/>
	<polygon id="XMLID_777_" class="st1" points="10.1,47.3 10.1,44.7 17.2,44.7 17.2,41.3 10.1,41.3 10.1,35.9 5.9,35.9 5.9,51 13,51 
		13,47.3 	"/>
	<rect id="XMLID_776_" x="13" y="51" class="st1" width="2.6" height="2.7"/>
</g>
</svg>
