<?xml version="1.0" encoding="utf-8"?>
<!-- Generator: Adobe Illustrator 24.0.1, SVG Export Plug-In . SVG Version: 6.00 Build 0)  -->
<svg version="1.1" id="base_1_" xmlns="http://www.w3.org/2000/svg" xmlns:xlink="http://www.w3.org/1999/xlink" x="0px" y="0px"
	 viewBox="0 0 120 80" style="enable-background:new 0 0 120 80;" xml:space="preserve">
<style type="text/css">
	.st0{fill:#AA1E23;}
</style>
<g>
	<path class="st0" d="M30,29.7c-2.6,0-5.1,1-6.9,2.6c-1.8-1.6-4.2-2.6-6.9-2.6C10.6,29.7,6,34.3,6,40c0,5.7,4.6,10.3,10.3,10.3
		c2.6,0,5.1-1,6.9-2.6c1.8,1.6,4.2,2.6,6.9,2.6c5.7,0,10.3-4.6,10.3-10.3C40.2,34.3,35.6,29.7,30,29.7z M15.4,46.3h-5.2
		c-1,0-1.8-0.8-1.8-1.8c0-1,0.8-1.8,1.8-1.8h5.2c1.4,0,2.4-0.5,2.9-1.6c0.5-0.9,0.5-1.9,0.5-2c0-1,0.8-1.8,1.8-1.8
		c1,0,1.8,0.8,1.8,1.8C22.4,42,20.5,46.3,15.4,46.3z M13.1,39.8c0-1.1,0.9-2.1,2.1-2.1c1.1,0,2.1,0.9,2.1,2.1c0,1.1-0.9,2.1-2.1,2.1
		C14,41.8,13.1,40.9,13.1,39.8z M20.6,36.5h-5.2c-1.4,0-2.4,0.5-2.9,1.6C12,39,11.9,40,11.9,40c0,1-0.8,1.8-1.8,1.8
		c-1,0-1.8-0.8-1.8-1.8c0-2.9,1.9-7.1,7-7.1h5.2c1,0,1.8,0.8,1.8,1.8C22.4,35.7,21.6,36.5,20.6,36.5z M35.8,46.7
		c-1,0-1.8-0.8-1.8-1.8v-5.1c0-1.8-1.5-3.3-3.3-3.3c-1.8,0-3.3,1.5-3.3,3.3c0,1.8,1.5,3.3,3.3,3.3c1,0,1.8,0.8,1.8,1.8
		c0,1-0.8,1.8-1.8,1.8c-3.8,0-6.9-3.1-6.9-6.9c0-3.8,3.1-6.9,6.9-6.9s6.9,3.1,6.9,6.9v5.1C37.6,45.9,36.8,46.7,35.8,46.7z"/>
	<g>
		<g>
			<path class="st0" d="M65.5,37.6c0-0.4-0.3-0.7-0.7-0.7c-0.7,0-1.3-0.6-1.3-1.3c0-0.7,0.6-1.3,1.3-1.3c0.7,0,1.3,0.6,1.3,1.3v2
				c0,0.4,0.3,0.7,0.7,0.7c0.4,0,0.7-0.3,0.7-0.7v-2c0-1.5-1.2-2.7-2.7-2.7c-1.5,0-2.7,1.2-2.7,2.7c0,1.5,1.2,2.7,2.7,2.7
				C65.2,38.3,65.5,38,65.5,37.6z"/>
			<path class="st0" d="M83.6,36.9c-0.7,0-1.3-0.6-1.3-1.3c0-0.7,0.6-1.3,1.3-1.3c0.7,0,1.3,0.6,1.3,1.3v2c0,0.4,0.3,0.7,0.7,0.7
				c0.4,0,0.7-0.3,0.7-0.7v-2c0-1.5-1.2-2.7-2.7-2.7c-1.5,0-2.7,1.2-2.7,2.7c0,1.5,1.2,2.7,2.7,2.7c0.4,0,0.7-0.3,0.7-0.7
				C84.3,37.2,83.9,36.9,83.6,36.9z"/>
			<path class="st0" d="M105.2,37.6v-2c0-1.5-1.2-2.7-2.7-2.7c-1.5,0-2.7,1.2-2.7,2.7c0,1.5,1.2,2.7,2.7,2.7c0.4,0,0.7-0.3,0.7-0.7
				c0-0.4-0.3-0.7-0.7-0.7c-0.7,0-1.3-0.6-1.3-1.3c0-0.7,0.6-1.3,1.3-1.3c0.7,0,1.3,0.6,1.3,1.3v2c0,0.4,0.3,0.7,0.7,0.7
				C104.8,38.3,105.2,38,105.2,37.6z"/>
			<path class="st0" d="M80.2,35.6c0-1.5-1.2-2.7-2.7-2.7c-1.5,0-2.7,1.2-2.7,2.7v3.2c0,0.4,0.3,0.7,0.7,0.7s0.7-0.3,0.7-0.7v-3.2
				c0-0.7,0.6-1.3,1.3-1.3s1.3,0.6,1.3,1.3c0,0.7-0.6,1.3-1.3,1.3c-0.4,0-0.7,0.3-0.7,0.7c0,0.4,0.3,0.7,0.7,0.7
				C79,38.3,80.2,37.1,80.2,35.6z"/>
			<circle class="st0" cx="54.6" cy="35.5" r="0.9"/>
			<path class="st0" d="M52.5,36.4c0.4,0,0.8-0.3,0.8-0.8c0,0,0-0.4,0.2-0.8c0.2-0.5,0.6-0.7,1.2-0.7h2.2c0.4,0,0.8-0.3,0.8-0.8
				c0-0.4-0.3-0.8-0.8-0.8h-2.2c-2.2,0-3,1.8-3,3C51.7,36.1,52.1,36.4,52.5,36.4z"/>
			<path class="st0" d="M52.5,38.3h2.2c2.2,0,3-1.8,3-3c0-0.4-0.3-0.8-0.8-0.8c-0.4,0-0.8,0.3-0.8,0.8c0,0,0,0.4-0.2,0.8
				c-0.2,0.5-0.6,0.7-1.2,0.7h-2.2c-0.4,0-0.8,0.3-0.8,0.8C51.7,38,52.1,38.3,52.5,38.3z"/>
			<path class="st0" d="M51.1,37.8c0-0.4-0.4-0.8-0.8-0.8h-1.6c-0.8,0-1.5-0.7-1.5-1.5c0-0.8,0.7-1.5,1.5-1.5h1.6
				c0.4,0,0.8-0.4,0.8-0.8c0-0.4-0.4-0.8-0.8-0.8h-1.6c-1.7,0-3.1,1.4-3.1,3.1c0,1.7,1.4,3.1,3.1,3.1h1.6
				C50.7,38.6,51.1,38.3,51.1,37.8z"/>
			<path class="st0" d="M72.7,35.9v1.6c0,0.4,0.4,0.8,0.8,0.8s0.8-0.4,0.8-0.8v-1.6c0-1.7-1.4-3.1-3.1-3.1c-1.7,0-3.1,1.4-3.1,3.1
				v1.6c0,0.4,0.4,0.8,0.8,0.8s0.8-0.4,0.8-0.8v-1.6c0-0.8,0.7-1.5,1.5-1.5C72,34.4,72.7,35.1,72.7,35.9z"/>
			<path class="st0" d="M69.9,41.2c-1.7,0-3.1,1.4-3.1,3.1v1.6c0,0.4,0.4,0.8,0.8,0.8s0.8-0.4,0.8-0.8v-1.6c0-0.8,0.7-1.5,1.5-1.5
				c0.8,0,1.5,0.7,1.5,1.5v1.6c0,0.4,0.4,0.8,0.8,0.8s0.8-0.4,0.8-0.8v-1.6C72.9,42.6,71.6,41.2,69.9,41.2z"/>
			<path class="st0" d="M103.7,41.2c-1.7,0-3.1,1.4-3.1,3.1v1.6c0,0.4,0.4,0.8,0.8,0.8s0.8-0.4,0.8-0.8v-1.6c0-0.8,0.7-1.5,1.5-1.5
				c0.8,0,1.5,0.7,1.5,1.5v1.6c0,0.4,0.4,0.8,0.8,0.8c0.4,0,0.8-0.4,0.8-0.8v-1.6C106.7,42.6,105.4,41.2,103.7,41.2z"/>
			<path class="st0" d="M92.8,33.6c0-0.4-0.4-0.8-0.8-0.8h-1.6c-1.7,0-3.1,1.4-3.1,3.1v1.6c0,0.4,0.4,0.8,0.8,0.8s0.8-0.4,0.8-0.8
				v-1.6c0-0.8,0.7-1.5,1.5-1.5H92C92.5,34.4,92.8,34.1,92.8,33.6z"/>
			<path class="st0" d="M78.7,41.2h-1.6c-1.7,0-3.1,1.4-3.1,3.1v1.6c0,0.4,0.4,0.8,0.8,0.8c0.4,0,0.8-0.4,0.8-0.8v-1.6
				c0-0.8,0.7-1.5,1.5-1.5h1.6c0.4,0,0.8-0.4,0.8-0.8C79.5,41.6,79.1,41.2,78.7,41.2z"/>
			<path class="st0" d="M61.1,38.5c0.4,0,0.8-0.4,0.8-0.8c0-0.4-0.4-0.8-0.8-0.8c-0.8,0-1.5-0.7-1.5-1.5V32c0-0.4-0.4-0.8-0.8-0.8
				c-0.4,0-0.8,0.4-0.8,0.8v3.4C58.1,37.1,59.4,38.5,61.1,38.5z"/>
			<path class="st0" d="M48,35.6c0,0.4,0.3,0.7,0.7,0.7s0.7-0.3,0.7-0.7c0-0.4-0.3-0.7-0.7-0.7S48,35.2,48,35.6z"/>
			<path class="st0" d="M77,43.6c-0.4,0-0.7,0.3-0.7,0.7S76.7,45,77,45s0.7-0.3,0.7-0.7S77.4,43.6,77,43.6z"/>
			<path class="st0" d="M51.2,42c0-0.4-0.4-0.8-0.8-0.8h-1.6c-1.7,0-3.1,1.4-3.1,3.1s1.4,3.1,3.1,3.1h1.6c0.4,0,0.8-0.4,0.8-0.8
				c0-0.4-0.4-0.8-0.8-0.8h-1.6c-0.8,0-1.5-0.7-1.5-1.5c0-0.8,0.7-1.5,1.5-1.5h1.6C50.8,42.8,51.2,42.5,51.2,42z"/>
			<path class="st0" d="M48.1,44.3c0,0.4,0.3,0.7,0.7,0.7c0.4,0,0.7-0.3,0.7-0.7s-0.3-0.7-0.7-0.7C48.5,43.6,48.1,43.9,48.1,44.3z"
				/>
			<path class="st0" d="M86.1,42c0-0.4-0.4-0.8-0.8-0.8h-1.6c-1.7,0-3.1,1.4-3.1,3.1s1.4,3.1,3.1,3.1h1.6c0.4,0,0.8-0.4,0.8-0.8
				c0-0.4-0.4-0.8-0.8-0.8h-1.6c-0.8,0-1.5-0.7-1.5-1.5c0-0.8,0.7-1.5,1.5-1.5h1.6C85.8,42.8,86.1,42.5,86.1,42z"/>
			<path class="st0" d="M83.1,44.3c0,0.4,0.3,0.7,0.7,0.7s0.7-0.3,0.7-0.7s-0.3-0.7-0.7-0.7S83.1,43.9,83.1,44.3z"/>
			<path class="st0" d="M103.7,43.6c-0.4,0-0.7,0.3-0.7,0.7s0.3,0.7,0.7,0.7c0.4,0,0.7-0.3,0.7-0.7S104.1,43.6,103.7,43.6z"/>
			<path class="st0" d="M61,34.2c0.4,0,0.7-0.3,0.7-0.7c0-0.4-0.3-0.7-0.7-0.7s-0.7,0.3-0.7,0.7C60.3,33.9,60.6,34.2,61,34.2z"/>
			<path class="st0" d="M72,37.5v-1.9c0-0.4-0.4-0.8-0.8-0.8c-0.4,0-0.8,0.4-0.8,0.8v1.9c0,0.4,0.4,0.8,0.8,0.8
				C71.6,38.3,72,37.9,72,37.5z"/>
			<path class="st0" d="M94.4,36.8c-0.4,0-0.8,0.4-0.8,0.8c0,0.4,0.4,0.8,0.8,0.8h3.9c0.4,0,0.8-0.4,0.8-0.8c0-0.4-0.4-0.8-0.8-0.8
				h-1.1v-2.4h1.1c0.4,0,0.8-0.4,0.8-0.8s-0.4-0.8-0.8-0.8h-3.9c-0.4,0-0.8,0.4-0.8,0.8s0.4,0.8,0.8,0.8h1.1v2.4H94.4z"/>
			<path class="st0" d="M62.9,40.9c-1.7,0-3.1,1.4-3.1,3.1c0,1.7,1.4,3.1,3.1,3.1c1.7,0,3.1-1.4,3.1-3.1
				C66,42.3,64.6,40.9,62.9,40.9z M62.9,45.5c-0.8,0-1.5-0.7-1.5-1.5s0.7-1.5,1.5-1.5s1.5,0.7,1.5,1.5S63.7,45.5,62.9,45.5z"/>
			<path class="st0" d="M56.1,42.5c0.6,0,1.1,0.4,1.4,0.9c0.2,0.4,0.6,0.6,1,0.4c0.4-0.2,0.6-0.6,0.4-1c-0.5-1.1-1.6-1.9-2.9-1.9
				c-1.7,0-3.1,1.4-3.1,3.1c0,1.7,1.4,3.1,3.1,3.1c1.2,0,2.3-0.7,2.8-1.8c0.2-0.4,0-0.9-0.4-1.1c-0.4-0.2-0.9,0-1.1,0.4
				c-0.2,0.5-0.8,0.9-1.4,0.9c-0.8,0-1.5-0.7-1.5-1.5S55.3,42.5,56.1,42.5z"/>
			<path class="st0" d="M90.4,42.5c0.6,0,1.1,0.4,1.4,0.9c0.2,0.4,0.6,0.6,1,0.4c0.4-0.2,0.6-0.6,0.4-1c-0.5-1.1-1.6-1.9-2.9-1.9
				c-1.7,0-3.1,1.4-3.1,3.1c0,1.7,1.4,3.1,3.1,3.1c1.2,0,2.3-0.7,2.8-1.8c0.2-0.4,0-0.9-0.4-1.1c-0.4-0.2-0.9,0-1.1,0.4
				c-0.2,0.5-0.8,0.9-1.4,0.9c-0.8,0-1.5-0.7-1.5-1.5S89.6,42.5,90.4,42.5z"/>
			<path class="st0" d="M97.1,42.5c0.6,0,1.1,0.4,1.4,0.9c0.2,0.4,0.6,0.6,1,0.4c0.4-0.2,0.6-0.6,0.4-1c-0.5-1.1-1.6-1.9-2.8-1.9
				c-1.7,0-3.1,1.4-3.1,3.1c0,1.5,1.1,2.8,2.6,3c0,0,0,0.1,0,0.1c0,0-0.1,0.1-0.1,0.1c-0.4,0.1-0.7,0.5-0.6,1
				c0.1,0.4,0.4,0.6,0.8,0.6c0.1,0,0.1,0,0.2,0c0.1,0,0.9-0.2,1.2-1c0.1-0.2,0.2-0.5,0.1-0.9c0.8-0.3,1.4-0.9,1.8-1.6
				c0.2-0.4,0-0.9-0.4-1.1c-0.4-0.2-0.9,0-1.1,0.4c-0.2,0.5-0.8,0.9-1.4,0.9c-0.8,0-1.5-0.7-1.5-1.5S96.2,42.5,97.1,42.5z"/>
			<path class="st0" d="M110.9,40.9c-1.7,0-3.1,1.4-3.1,3.1c0,1.7,1.4,3.1,3.1,3.1c1.7,0,3.1-1.4,3.1-3.1
				C114,42.3,112.6,40.9,110.9,40.9z M110.9,45.5c-0.8,0-1.5-0.7-1.5-1.5s0.7-1.5,1.5-1.5c0.8,0,1.5,0.7,1.5,1.5
				S111.8,45.5,110.9,45.5z"/>
			<path class="st0" d="M101.5,40c-0.1,0.4,0.1,0.9,0.5,1c0.1,0,0.2,0,0.2,0c0.3,0,0.6-0.2,0.7-0.5c0.1,0,0.2,0,0.4,0.1
				c0.8,0.2,1.3,0.1,1.6-0.1c0.6-0.3,0.8-0.9,0.8-1l-0.8-0.2l-0.8-0.2c0,0-0.1,0.2-0.4,0c-0.7-0.2-1.2-0.2-1.7,0.1
				C101.8,39.4,101.6,39.7,101.5,40z"/>
		</g>
	</g>
</g>
</svg>
