<?xml version="1.0" encoding="utf-8"?>
<!-- Generator: Adobe Illustrator 24.0.1, SVG Export Plug-In . SVG Version: 6.00 Build 0)  -->
<svg version="1.1" id="Layer_1" xmlns="http://www.w3.org/2000/svg" xmlns:xlink="http://www.w3.org/1999/xlink" x="0px" y="0px"
	 viewBox="0 0 120 80" style="enable-background:new 0 0 120 80;" xml:space="preserve">
<style type="text/css">
	.st0{fill:#ECA82A;}
	.st1{fill:#252128;}
</style>
<g>
	<g>
		<polygon class="st0" points="10.2,42 10.2,52.9 15.7,47.4 		"/>
		<polygon class="st0" points="24.4,52.9 36,52.9 36,30.4 13.5,52.9 		"/>
		<path class="st0" d="M5,21.9v36.2h36.2V21.9H5z M38.3,55.2H26.7H7.9V36.4l9.4,9.4l20.9-20.9V55.2z"/>
	</g>
	<g>
		<g>
			<path class="st1" d="M46.5,28.8h4.1l3.4,5.4l3.4-5.4h4.1v14.1h-3.9v-8.1L54,40.3h-0.1l-3.6-5.5v8h-3.8V28.8z"/>
			<path class="st1" d="M63.3,37.5L63.3,37.5c0-3.2,2.3-5.7,5.5-5.7c3.8,0,5.5,2.8,5.5,5.9c0,0.2,0,0.5,0,0.8h-7.3
				c0.3,1.2,1.2,1.8,2.4,1.8c0.9,0,1.6-0.3,2.4-1.1l2.1,1.7c-1,1.3-2.6,2.2-4.7,2.2C65.7,43.1,63.3,40.9,63.3,37.5z M70.7,36.6
				c-0.1-1.2-0.8-2-1.9-2c-1,0-1.7,0.8-1.9,2H70.7z"/>
			<path class="st1" d="M75.9,32h3.8v2.2c0.6-1.5,1.6-2.5,3.4-2.4v4h-0.3c-2,0-3.1,1.1-3.1,3.7v3.4h-3.8V32z"/>
			<path class="st1" d="M83.8,37.5L83.8,37.5c0-3.1,2.5-5.7,6-5.7c3.5,0,6,2.6,6,5.6v0c0,3.1-2.5,5.7-6,5.7
				C86.3,43.1,83.8,40.6,83.8,37.5z M92.1,37.5L92.1,37.5c0-1.4-1-2.5-2.3-2.5c-1.4,0-2.3,1.1-2.3,2.4v0c0,1.3,1,2.5,2.3,2.5
				C91.2,39.9,92.1,38.8,92.1,37.5z"/>
			<path class="st1" d="M97.5,32h3.8v1.5c0.7-0.9,1.7-1.7,3.2-1.7c1.4,0,2.6,0.6,3.1,1.8c0.9-1.1,2.1-1.8,3.6-1.8
				c2.3,0,3.7,1.4,3.7,4v7.1h-3.8V37c0-1.2-0.6-1.8-1.5-1.8c-0.9,0-1.6,0.6-1.6,1.8v5.9h-3.8V37c0-1.2-0.6-1.8-1.5-1.8
				s-1.5,0.6-1.5,1.8v5.9h-3.8V32z"/>
		</g>
		<g>
			<path class="st1" d="M49,51c-0.2,0.1-0.5,0.2-0.8,0.2c-0.2,0-0.5,0-0.7-0.1c-0.2-0.1-0.4-0.2-0.5-0.4c-0.2-0.2-0.3-0.3-0.4-0.5
				c-0.1-0.2-0.1-0.4-0.1-0.7c0-0.2,0-0.5,0.1-0.7c0.1-0.2,0.2-0.4,0.4-0.6c0.2-0.2,0.3-0.3,0.5-0.4c0.2-0.1,0.4-0.1,0.7-0.1
				c0.2,0,0.3,0,0.4,0c0.1,0,0.2,0.1,0.4,0.1c0.1,0.1,0.2,0.1,0.3,0.2c0.1,0.1,0.2,0.1,0.2,0.2l-0.3,0.3c-0.1-0.1-0.3-0.3-0.4-0.4
				c-0.2-0.1-0.3-0.1-0.6-0.1c-0.2,0-0.3,0-0.5,0.1c-0.1,0.1-0.3,0.2-0.4,0.3c-0.1,0.1-0.2,0.3-0.2,0.4C47,49.1,47,49.3,47,49.4
				s0,0.3,0.1,0.5c0.1,0.2,0.1,0.3,0.3,0.4c0.1,0.1,0.2,0.2,0.4,0.3c0.1,0.1,0.3,0.1,0.5,0.1c0.2,0,0.4,0,0.6-0.1
				c0.2-0.1,0.3-0.2,0.4-0.4l0.3,0.3C49.4,50.7,49.2,50.9,49,51z"/>
			<path class="st1" d="M53.3,50.1c-0.1,0.2-0.2,0.4-0.4,0.6c-0.2,0.2-0.3,0.3-0.5,0.4c-0.2,0.1-0.4,0.1-0.7,0.1
				c-0.2,0-0.5,0-0.7-0.1c-0.2-0.1-0.4-0.2-0.5-0.4c-0.2-0.2-0.3-0.3-0.4-0.5c-0.1-0.2-0.1-0.4-0.1-0.7c0-0.2,0-0.5,0.1-0.7
				c0.1-0.2,0.2-0.4,0.4-0.6s0.3-0.3,0.5-0.4c0.2-0.1,0.4-0.1,0.7-0.1c0.2,0,0.5,0,0.7,0.1c0.2,0.1,0.4,0.2,0.5,0.4s0.3,0.3,0.4,0.5
				c0.1,0.2,0.1,0.4,0.1,0.7C53.5,49.7,53.4,49.9,53.3,50.1z M52.9,49c-0.1-0.2-0.1-0.3-0.3-0.4c-0.1-0.1-0.2-0.2-0.4-0.3
				c-0.1-0.1-0.3-0.1-0.5-0.1c-0.2,0-0.3,0-0.5,0.1c-0.1,0.1-0.3,0.2-0.4,0.3c-0.1,0.1-0.2,0.3-0.2,0.4c-0.1,0.2-0.1,0.3-0.1,0.5
				s0,0.3,0.1,0.5c0.1,0.2,0.1,0.3,0.3,0.4c0.1,0.1,0.2,0.2,0.4,0.3c0.1,0.1,0.3,0.1,0.5,0.1c0.2,0,0.3,0,0.5-0.1
				c0.1-0.1,0.3-0.2,0.4-0.3c0.1-0.1,0.2-0.2,0.2-0.4c0.1-0.2,0.1-0.3,0.1-0.5C53,49.3,52.9,49.1,52.9,49z"/>
			<path class="st1" d="M54.9,51.1h-0.5v-3.3h0.5v0.6c0.1-0.2,0.3-0.3,0.4-0.5c0.2-0.1,0.4-0.2,0.7-0.2c0.2,0,0.4,0,0.5,0.1
				c0.2,0.1,0.3,0.2,0.4,0.3c0.1,0.1,0.2,0.3,0.2,0.4c0.1,0.2,0.1,0.3,0.1,0.5v2.1h-0.5v-1.9c0-0.3-0.1-0.5-0.2-0.7
				c-0.2-0.2-0.4-0.3-0.7-0.3c-0.1,0-0.3,0-0.4,0.1c-0.1,0-0.2,0.1-0.3,0.2c-0.1,0.1-0.2,0.2-0.2,0.3c0,0.1-0.1,0.3-0.1,0.4V51.1z"
				/>
			<path class="st1" d="M60.5,50.6c-0.1,0.1-0.1,0.2-0.2,0.3c-0.1,0.1-0.2,0.2-0.4,0.2c-0.1,0-0.3,0.1-0.5,0.1c-0.2,0-0.5,0-0.7-0.1
				c-0.2-0.1-0.5-0.2-0.6-0.4l0.2-0.4c0.2,0.1,0.4,0.2,0.6,0.3c0.2,0.1,0.4,0.1,0.6,0.1c0.2,0,0.4,0,0.5-0.1
				c0.1-0.1,0.2-0.2,0.2-0.4v0c0-0.1,0-0.2-0.1-0.2c0-0.1-0.1-0.1-0.2-0.2s-0.2-0.1-0.3-0.1c-0.1,0-0.2-0.1-0.3-0.1
				c-0.1,0-0.3-0.1-0.4-0.1s-0.2-0.1-0.4-0.2c-0.1-0.1-0.2-0.2-0.3-0.3c-0.1-0.1-0.1-0.2-0.1-0.4v0c0-0.1,0-0.3,0.1-0.4
				c0.1-0.1,0.1-0.2,0.2-0.3c0.1-0.1,0.2-0.1,0.4-0.2c0.1,0,0.3-0.1,0.5-0.1c0.2,0,0.4,0,0.6,0.1c0.2,0.1,0.4,0.2,0.6,0.3l-0.2,0.4
				c-0.2-0.1-0.3-0.2-0.5-0.2s-0.3-0.1-0.5-0.1c-0.2,0-0.4,0-0.5,0.1c-0.1,0.1-0.2,0.2-0.2,0.3v0c0,0.1,0,0.1,0.1,0.2
				c0,0.1,0.1,0.1,0.2,0.2c0.1,0,0.2,0.1,0.3,0.1c0.1,0,0.2,0.1,0.3,0.1c0.1,0,0.3,0.1,0.4,0.1c0.1,0,0.2,0.1,0.3,0.2
				c0.1,0.1,0.2,0.2,0.2,0.3c0.1,0.1,0.1,0.2,0.1,0.4v0C60.6,50.3,60.5,50.5,60.5,50.6z"/>
			<path class="st1" d="M63.8,47.8h0.5v3.3h-0.5v-0.6c-0.1,0.2-0.3,0.3-0.4,0.5c-0.2,0.1-0.4,0.2-0.7,0.2c-0.2,0-0.4,0-0.5-0.1
				c-0.2-0.1-0.3-0.2-0.4-0.3c-0.1-0.1-0.2-0.3-0.2-0.4c-0.1-0.2-0.1-0.3-0.1-0.5v-2.1h0.5v1.9c0,0.3,0.1,0.5,0.2,0.7
				c0.2,0.2,0.4,0.3,0.7,0.3c0.1,0,0.3,0,0.4-0.1c0.1,0,0.2-0.1,0.3-0.2c0.1-0.1,0.2-0.2,0.2-0.3c0.1-0.1,0.1-0.3,0.1-0.4V47.8z"/>
			<path class="st1" d="M65.5,51.1v-4.7H66v4.7H65.5z"/>
			<path class="st1" d="M67.8,50.2c0,0.2,0.1,0.3,0.2,0.4c0.1,0.1,0.2,0.1,0.4,0.1c0.1,0,0.2,0,0.2,0c0.1,0,0.2,0,0.2-0.1V51
				c-0.1,0-0.2,0.1-0.3,0.1c-0.1,0-0.2,0-0.3,0c-0.1,0-0.3,0-0.4-0.1c-0.1,0-0.2-0.1-0.3-0.2c-0.1-0.1-0.1-0.2-0.2-0.3
				c0-0.1-0.1-0.3-0.1-0.4v-2h-0.5v-0.4h0.5v-1h0.5v1h1v0.4h-1V50.2z"/>
			<path class="st1" d="M72.7,50.1c-0.1,0.2-0.2,0.4-0.4,0.6C72.2,50.8,72,51,71.8,51c-0.2,0.1-0.4,0.1-0.7,0.1
				c-0.2,0-0.5,0-0.7-0.1c-0.2-0.1-0.4-0.2-0.5-0.4c-0.2-0.2-0.3-0.3-0.4-0.5c-0.1-0.2-0.1-0.4-0.1-0.7c0-0.2,0-0.5,0.1-0.7
				c0.1-0.2,0.2-0.4,0.4-0.6s0.3-0.3,0.5-0.4c0.2-0.1,0.4-0.1,0.7-0.1c0.2,0,0.5,0,0.7,0.1c0.2,0.1,0.4,0.2,0.5,0.4s0.3,0.3,0.4,0.5
				c0.1,0.2,0.1,0.4,0.1,0.7C72.8,49.7,72.8,49.9,72.7,50.1z M72.2,49c-0.1-0.2-0.1-0.3-0.3-0.4c-0.1-0.1-0.2-0.2-0.4-0.3
				c-0.1-0.1-0.3-0.1-0.5-0.1c-0.2,0-0.3,0-0.5,0.1c-0.1,0.1-0.3,0.2-0.4,0.3c-0.1,0.1-0.2,0.3-0.2,0.4c-0.1,0.2-0.1,0.3-0.1,0.5
				s0,0.3,0.1,0.5c0.1,0.2,0.1,0.3,0.3,0.4c0.1,0.1,0.2,0.2,0.4,0.3c0.1,0.1,0.3,0.1,0.5,0.1c0.2,0,0.3,0,0.5-0.1
				c0.1-0.1,0.3-0.2,0.4-0.3c0.1-0.1,0.2-0.2,0.2-0.4c0.1-0.2,0.1-0.3,0.1-0.5C72.3,49.3,72.3,49.1,72.2,49z"/>
			<path class="st1" d="M74.2,51.1h-0.5v-3.3h0.5v0.9c0.1-0.1,0.1-0.3,0.2-0.4c0.1-0.1,0.2-0.2,0.3-0.3c0.1-0.1,0.2-0.1,0.4-0.2
				c0.1,0,0.3-0.1,0.4-0.1v0.5h0c-0.2,0-0.3,0-0.5,0.1c-0.2,0.1-0.3,0.2-0.4,0.3c-0.1,0.1-0.2,0.3-0.3,0.5c-0.1,0.2-0.1,0.4-0.1,0.7
				V51.1z"/>
			<path class="st1" d="M76.3,47.1v-0.5h0.6v0.5H76.3z M76.4,51.1v-3.3h0.5v3.3H76.4z"/>
			<path class="st1" d="M78.7,48.3c-0.2,0-0.3,0.1-0.5,0.2L78,48c0.2-0.1,0.4-0.2,0.6-0.2c0.2,0,0.4-0.1,0.6-0.1
				c0.5,0,0.8,0.1,1,0.3c0.2,0.2,0.4,0.6,0.4,1v2h-0.5v-0.5c-0.1,0.1-0.3,0.3-0.5,0.4c-0.2,0.1-0.4,0.2-0.7,0.2
				c-0.2,0-0.3,0-0.5-0.1c-0.1,0-0.3-0.1-0.4-0.2c-0.1-0.1-0.2-0.2-0.3-0.3c-0.1-0.1-0.1-0.3-0.1-0.5s0-0.3,0.1-0.5s0.2-0.2,0.3-0.3
				c0.1-0.1,0.3-0.2,0.4-0.2c0.2,0,0.4-0.1,0.6-0.1c0.2,0,0.4,0,0.6,0c0.2,0,0.3,0.1,0.5,0.1v-0.1c0-0.3-0.1-0.5-0.3-0.7
				s-0.4-0.2-0.7-0.2C79,48.2,78.8,48.2,78.7,48.3z M78.5,49.6c-0.2,0.1-0.2,0.3-0.2,0.5c0,0.1,0,0.2,0.1,0.3c0,0.1,0.1,0.2,0.2,0.2
				s0.2,0.1,0.3,0.1c0.1,0,0.2,0,0.3,0c0.2,0,0.3,0,0.4-0.1c0.1,0,0.3-0.1,0.4-0.2c0.1-0.1,0.2-0.2,0.2-0.3c0.1-0.1,0.1-0.2,0.1-0.4
				v-0.3c-0.1,0-0.3-0.1-0.4-0.1c-0.2,0-0.3,0-0.5,0C78.9,49.4,78.7,49.5,78.5,49.6z"/>
		</g>
	</g>
</g>
</svg>
