<?xml version="1.0" encoding="utf-8"?>
<!-- Generator: Adobe Illustrator 23.0.1, SVG Export Plug-In . SVG Version: 6.00 Build 0)  -->
<svg version="1.1" id="Camada_1" xmlns="http://www.w3.org/2000/svg" xmlns:xlink="http://www.w3.org/1999/xlink" x="0px" y="0px"
	 viewBox="0 0 120 80" style="enable-background:new 0 0 120 80;" xml:space="preserve">
<style type="text/css">
	.st0{fill:#FF0000;}
</style>
<g>
	<path d="M6.2,31.3c1.2,0.3,2.6,0.3,4.2,0c0.8,0.2,1.7,0.3,2.8,0.2c0.6,0.4,1.2,0.6,1.8,0.6l0.8-0.2c0.4,0.6,0.9,1,1.6,1.4
		c1.4,2.6,1.2,4.6-0.6,5.9V40c-1.7,0.9-3.5,1.1-5.5,0.6c-0.5,0.2-1,0.4-1.6,0.8c0.2,1,0.1,2.2-0.2,3.6c0.5,0.3,1.1,0.4,1.8,0.2
		l1.2,0.4v1c-2.1,0.6-3.8,0.6-4.9,0c-0.8,0.5-1.7,0.5-2.8,0c0.5-1.3,1.6-1.8,3.4-1.6c0.1-0.5,0-1-0.2-1.6C8.3,43.1,8.4,42.6,8,42
		c0.4-1.1,0.4-2.3-0.2-3.6c0.2-0.6,0.2-1.2,0-1.8c0.4-0.8,0.4-1.7,0.2-2.8c-0.7-0.1-1.5-0.2-2.4-0.2c-0.2-0.5-0.5-1-1-1.4L6.2,31.3z
		 M11,32.9c-0.3,0.4-0.7,0.6-1.2,0.6c0.2,0.9,0.2,1.9-0.2,3v1.4l-0.2,1.4c1.1,1.2,2,1.2,2.8,0.2c1.6,0.5,2.9,0,4-1.4
		c0.7-2.5,0.4-3.7-1-3.6l-0.6-1.4c-0.7-0.1-1.4-0.1-2.2,0.2L11,32.9z"/>
	<path d="M23.4,35.4h1.1l2.1,1.1l0.4,0.2l0.4,0.2c0.1,0.3,0.3,0.6,0.5,0.9l0.5,0.2c0.3,1.2,0.3,2.5,0.2,4.1l0.2,0.7
		c-1.5,3.6-4.1,4.9-7.8,3.9c-0.4-0.9-1.1-1.9-2.1-2.9c-0.1-0.8,0-1.5,0.4-2.1v-0.5l-0.5-0.7c0.4-0.5,0.7-1.2,0.7-2.1
		c0.4-0.3,0.9-0.7,1.2-1.2l1.2-0.5C22.2,36.1,22.8,35.7,23.4,35.4z M22.9,39l-2,0.4c0.1,0.7,0.1,1.4-0.2,2.3
		c0.2,0.2,0.4,0.3,0.7,0.4c-0.1,0.7,0.2,1,1.1,1.1v-0.2v0.2v-0.2c0.5,1.1,0.9,1.3,1.1,0.7c1.5-0.2,2.3-1,2.1-2.5
		c-0.4-1.2-1.1-1.7-2.3-1.4C23.3,39.4,23.2,39.1,22.9,39z"/>
	<path d="M37.3,35.4c2.4,0,4,1.1,5,3.4c1,1.2,0.9,2.3-0.4,3.4c1.1,1.6,1,2.7-0.4,3.2V46c-1.7,0.9-3.6,1.1-5.7,0.7v-0.5
		c-1.4-1-2.2-2.5-2.5-4.5L32.9,41c0.5-2.8,1.9-4.5,4.1-5C37,35.8,37.1,35.6,37.3,35.4z M37.5,38.3c-1.2,0.8-1.3,1.3-0.5,1.6
		c0.6,0.9,1.5,0.7,2.7-0.7C39.3,38.6,38.5,38.3,37.5,38.3z M39.7,42.1c-0.7,0.4-1.6,0.6-2.5,0.5c0,0.9,0.4,1.4,1.3,1.4
		C40.8,43.1,41.2,42.5,39.7,42.1z"/>
	<path class="st0" d="M51.2,35.4c0.8-0.1,1.5,0.1,2.2,0.7c0.7,0,1.5-0.2,2.1-0.7h0.5h1.4c0.6,0.9,0.7,1.9,0.5,3c0.2,1,0.2,2.1,0,3.4
		c0.1,0.4,0.2,0.8,0.2,1.4c0.3,0.2,0.7,0.6,1.3,1.1c0.1,0.4-0.1,0.9-0.4,1.4v0.5c-0.5,0.1-1,0.4-1.6,0.7c-1.6-0.7-3.6-0.9-5.7-0.5
		c-1-0.3-2.2-0.4-3.6-0.2c-0.4-0.4-0.9-0.8-1.6-1.3l1.1-2.5l0.4,0.2c-0.2-1.3-0.1-2.7,0.2-4.3c-0.7-0.3-1.2-0.9-1.6-1.8
		c0.4-0.2,0.7-0.4,0.9-0.9c0.8,0,1.7,0.2,2.7,0.5l0.5-0.2L51.2,35.4z M51.1,39V40c-0.9-0.1-1.4,0.4-1.6,1.6
		c-0.1,0.8,0.1,1.5,0.5,2.1c1.4,0.1,2.1-0.5,2-1.8c0.6-1,0.3-1.4-0.7-1.4C51.7,39.8,51.7,39.2,51.1,39z M55,39.5
		c-0.7,0.7-0.9,1.6-0.5,2.5c-0.3,1,0,1.5,0.9,1.6c0.3-1.1,0.3-2.4,0-3.8l0.2-0.4H55z"/>
	<path d="M65.4,35.4c2.4,0,4,1.1,5,3.4c1,1.2,0.9,2.3-0.4,3.4c1.1,1.6,1,2.7-0.4,3.2V46c-1.7,0.9-3.6,1.1-5.7,0.7v-0.5
		c-1.4-1-2.2-2.5-2.5-4.5L60.9,41c0.5-2.8,1.9-4.5,4.1-5C65.1,35.8,65.2,35.6,65.4,35.4z M65.6,38.3c-1.2,0.8-1.3,1.3-0.5,1.6
		c0.6,0.9,1.5,0.7,2.7-0.7C67.3,38.6,66.6,38.3,65.6,38.3z M67.7,42.1c-0.7,0.4-1.6,0.6-2.5,0.5c0,0.9,0.4,1.4,1.3,1.4
		C68.9,43.1,69.3,42.5,67.7,42.1z"/>
	<path d="M84,39c1-0.1,1.5,0,1.6,0.2c0.1,0.2-0.4,0.8-1.4,1.8c-0.2,0-0.5,0-0.8,0c-0.3-0.1-0.9-0.1-1.9,0c-2.1-0.1-2.8,0-2.1,0.1
		L78,41c-0.1-0.3-0.1-0.7,0.1-1.1c0.2-0.5,0.5-0.7,0.9-0.8c0.2,0,0.4,0,0.7,0.1c0.6,0.1,1.2,0.1,1.8,0.1S83,39.1,84,39z"/>
	<path d="M91.5,35.4c1.9,0.8,3.8,0.8,5.8,0c1,1.2,1.2,2.8,0.5,4.6c-0.6-0.4-1.2-0.4-1.8,0c2.3,0.8,3.1,2.6,2.5,5.3
		c-0.6,0.2-1.4,0.6-2.2,1.1c-1.6,0.7-3.4,0.7-5.3,0c-0.7,0.3-1.5,0.5-2.4,0.5c-0.3-1.5-0.4-3.3-0.2-5.6l1.3-0.4
		C88.3,38.6,88.9,36.8,91.5,35.4z M91,41.2c-0.5,2.2,0.3,3.2,2.5,2.9l0.2,0.7c0.2-0.8,0.8-1,1.8-0.7C98.1,42.7,96.6,41.7,91,41.2z
		 M93.7,38.5c-0.3,0.9,0.4,1.3,2,1.1C95.5,38.8,94.8,38.5,93.7,38.5z"/>
	<path d="M107.2,35.4c2.4,0,4,1.1,5,3.4c1,1.2,0.9,2.3-0.4,3.4c1.1,1.6,1,2.7-0.4,3.2V46c-1.7,0.9-3.6,1.1-5.7,0.7v-0.5
		c-1.4-1-2.2-2.5-2.5-4.5l-0.5-0.7c0.5-2.8,1.9-4.5,4.1-5C106.8,35.8,106.9,35.6,107.2,35.4z M107.3,38.3c-1.2,0.8-1.3,1.3-0.5,1.6
		c0.6,0.9,1.5,0.7,2.7-0.7C109.1,38.6,108.3,38.3,107.3,38.3z M109.5,42.1c-0.7,0.4-1.6,0.6-2.5,0.5c0,0.9,0.4,1.4,1.3,1.4
		C110.6,43.1,111,42.5,109.5,42.1z"/>
</g>
</svg>
