<?xml version="1.0" encoding="utf-8"?>
<!-- Generator: Adobe Illustrator 24.0.1, SVG Export Plug-In . SVG Version: 6.00 Build 0)  -->
<svg version="1.1" id="Layer_1" xmlns="http://www.w3.org/2000/svg" xmlns:xlink="http://www.w3.org/1999/xlink" x="0px" y="0px"
	 viewBox="0 0 120 80" style="enable-background:new 0 0 120 80;" xml:space="preserve">
<g class="destaque">
	<polygon fill="#ECA82A" points="10.2,42 10.2,52.9 15.7,47.4 			"/>
	<polygon fill="#ECA82A" points="24.4,52.9 36,52.9 36,30.4 13.5,52.9 			"/>
	<path fill="#ECA82A" d="M5,21.9v36.2h36.2V21.9H5z M38.3,55.2H26.7H7.9V36.4l9.4,9.4l20.9-20.9v30.3C38.2,55.2,38.3,55.2,38.3,55.2z
		"/>
</g>
<g class="base">
	<polygon fill="#252128" points="61.5,42.9 61.5,28.8 57.4,28.8 54,34.2 50.6,28.8 46.5,28.8 46.5,42.8 50.3,42.8 50.3,34.8 53.9,40.3 
		54,40.3 57.6,34.8 57.6,42.9 	"/>
	<path fill="#252128" d="M71.8,39.2c-0.8,0.8-1.5,1.1-2.4,1.1c-1.2,0-2.1-0.6-2.4-1.8h7.3c0-0.3,0-0.6,0-0.8c0-3.1-1.7-5.9-5.5-5.9
		c-3.2,0-5.5,2.5-5.5,5.7c0,3.4,2.4,5.6,5.9,5.6c2.1,0,3.7-0.9,4.7-2.2L71.8,39.2z M68.8,34.6c1.1,0,1.8,0.8,1.9,2h-3.8
		C67.1,35.4,67.8,34.6,68.8,34.6z"/>
	<path fill="#252128" d="M79.7,34.2V32h-3.8v10.9h3.8v-3.4c0-2.6,1.1-3.7,3.1-3.7h0.3v-4C81.3,31.7,80.3,32.7,79.7,34.2z"/>
	<path fill="#252128" d="M89.8,31.8c-3.5,0-6,2.6-6,5.7s2.5,5.6,6,5.6s6-2.6,6-5.7C95.8,34.4,93.3,31.8,89.8,31.8z M89.8,39.9
		c-1.3,0-2.3-1.2-2.3-2.5c0-1.3,0.9-2.4,2.3-2.4c1.3,0,2.3,1.1,2.3,2.5C92.1,38.8,91.2,39.9,89.8,39.9z"/>
	<path fill="#252128" d="M111.2,31.8c-1.5,0-2.7,0.7-3.6,1.8c-0.5-1.2-1.7-1.8-3.1-1.8c-1.5,0-2.5,0.8-3.2,1.7V32h-3.8h-0.1v10.9h3.8
		V37c0-1.2,0.6-1.8,1.5-1.8c0.9,0,1.5,0.6,1.5,1.8v5.9h3.8V37c0-1.2,0.7-1.8,1.6-1.8c0.9,0,1.5,0.6,1.5,1.8v5.9h3.8v-7.1
		C114.9,33.2,113.5,31.8,111.2,31.8z"/>
	<path fill="#252128" d="M48.9,50.6c-0.2,0.1-0.4,0.1-0.6,0.1s-0.4,0-0.5-0.1c-0.2-0.1-0.3-0.2-0.4-0.3c-0.2-0.1-0.2-0.2-0.3-0.4
		C47,49.7,47,49.5,47,49.4c0-0.1,0-0.3,0.1-0.6c0-0.1,0.1-0.3,0.2-0.4c0.1-0.1,0.3-0.2,0.4-0.3C47.9,48,48,48,48.2,48
		c0.3,0,0.4,0,0.6,0.1c0.1,0.1,0.3,0.3,0.4,0.4l0.3-0.3c0-0.1-0.1-0.1-0.2-0.2c-0.1-0.1-0.2-0.1-0.3-0.2c-0.2,0-0.3-0.1-0.4-0.1
		c-0.1,0-0.2,0-0.4,0c-0.3,0-0.5,0-0.7,0.1c-0.2,0.1-0.3,0.2-0.5,0.4s-0.3,0.4-0.4,0.6c-0.1,0.2-0.1,0.5-0.1,0.7
		c0,0.3,0,0.5,0.1,0.7c0.1,0.2,0.2,0.3,0.4,0.5c0.1,0.2,0.3,0.3,0.5,0.4c0.2,0.1,0.5,0.1,0.7,0.1c0.3,0,0.6-0.1,0.8-0.2
		s0.4-0.3,0.6-0.5l-0.3-0.3C49.2,50.4,49.1,50.5,48.9,50.6z"/>
	<path fill="#252128" d="M53.3,48.7c-0.1-0.2-0.3-0.3-0.4-0.5c-0.1-0.2-0.3-0.3-0.5-0.4c-0.2-0.1-0.5-0.1-0.7-0.1c-0.3,0-0.5,0-0.7,0.1
		c-0.2,0.1-0.3,0.2-0.5,0.4s-0.3,0.4-0.4,0.6C50,49,50,49.3,50,49.5c0,0.3,0,0.5,0.1,0.7c0.1,0.2,0.2,0.3,0.4,0.5
		c0.1,0.2,0.3,0.3,0.5,0.4c0.2,0.1,0.5,0.1,0.7,0.1c0.3,0,0.5,0,0.7-0.1c0.2-0.1,0.3-0.2,0.5-0.4c0.2-0.2,0.3-0.4,0.4-0.6
		c0.1-0.2,0.2-0.4,0.1-0.7C53.4,49.1,53.4,48.9,53.3,48.7z M52.9,50c0,0.2-0.1,0.3-0.2,0.4c-0.1,0.1-0.3,0.2-0.4,0.3
		c-0.2,0.1-0.3,0.1-0.5,0.1s-0.4,0-0.5-0.1c-0.2-0.1-0.3-0.2-0.4-0.3c-0.2-0.1-0.2-0.2-0.3-0.4c-0.1-0.2-0.1-0.3-0.1-0.5
		s0-0.3,0.1-0.5c0-0.1,0.1-0.3,0.2-0.4c0.1-0.1,0.3-0.2,0.4-0.3c0.2-0.1,0.3-0.1,0.5-0.1s0.4,0,0.5,0.1c0.2,0.1,0.3,0.2,0.4,0.3
		c0.2,0.1,0.2,0.2,0.3,0.4c0,0.1,0.1,0.3,0.1,0.5S53,49.8,52.9,50z"/>
	<path fill="#252128" d="M56.9,48.1c-0.1-0.1-0.2-0.2-0.4-0.3c-0.1-0.1-0.3-0.1-0.5-0.1c-0.3,0-0.5,0.1-0.7,0.2
		c-0.1,0.2-0.3,0.3-0.4,0.5v-0.6h-0.5v3.3h0.5l-0.1-1.9c0-0.1,0.1-0.3,0.1-0.4s0.1-0.2,0.2-0.3c0.1-0.1,0.2-0.2,0.3-0.2
		c0.1-0.1,0.3-0.1,0.4-0.1c0.3,0,0.5,0.1,0.7,0.3c0.1,0.2,0.2,0.4,0.2,0.7v1.9h0.5V49c0-0.2,0-0.3-0.1-0.5
		C57.1,48.4,57,48.2,56.9,48.1z"/>
	<path fill="#252128" d="M60.4,49.7c0-0.1-0.1-0.2-0.2-0.3c-0.1-0.1-0.2-0.2-0.3-0.2c-0.1,0-0.3-0.1-0.4-0.1S59.3,49,59.2,49
		c-0.1,0-0.2-0.1-0.3-0.1c-0.1-0.1-0.2-0.1-0.2-0.2c-0.1-0.1-0.1-0.1-0.1-0.2c0-0.1,0.1-0.2,0.2-0.3c0.1-0.1,0.3-0.1,0.5-0.1
		s0.3,0.1,0.5,0.1s0.3,0.1,0.5,0.2l0.2-0.4c-0.2-0.1-0.4-0.2-0.6-0.3c-0.2-0.1-0.4-0.1-0.6-0.1s-0.4,0.1-0.5,0.1
		c-0.2,0.1-0.3,0.1-0.4,0.2c-0.1,0.1-0.1,0.2-0.2,0.3c-0.1,0.1-0.1,0.3-0.1,0.4c0,0.2,0,0.3,0.1,0.4c0.1,0.1,0.2,0.2,0.3,0.3
		c0.2,0.1,0.3,0.2,0.4,0.2c0.1,0,0.3,0.1,0.4,0.1c0.1,0,0.2,0.1,0.3,0.1c0.1,0,0.2,0,0.3,0.1c0.1,0.1,0.2,0.1,0.2,0.2
		c0.1,0,0.1,0.1,0.1,0.2c0,0.2-0.1,0.3-0.2,0.4c-0.1,0.1-0.3,0.1-0.5,0.1s-0.4,0-0.6-0.1c-0.2-0.1-0.4-0.2-0.6-0.3l-0.2,0.4
		c0.1,0.2,0.4,0.3,0.6,0.4c0.2,0.1,0.5,0.1,0.7,0.1c0.2,0,0.4-0.1,0.5-0.1c0.2,0,0.3-0.1,0.4-0.2c0.1-0.1,0.1-0.2,0.2-0.3
		c0-0.1,0.1-0.3,0-0.5C60.5,49.9,60.5,49.8,60.4,49.7z"/>
	<path fill="#252128" d="M63.9,49.7c0,0.1,0,0.3-0.1,0.4c0,0.1-0.1,0.2-0.2,0.3c-0.1,0.1-0.2,0.2-0.3,0.2c-0.1,0.1-0.3,0.1-0.4,0.1
		c-0.3,0-0.5-0.1-0.7-0.3C62.1,50.2,62,50,62,49.7v-1.9h-0.5v2.1c0,0.2,0,0.3,0.1,0.5c0,0.1,0.1,0.3,0.2,0.4
		c0.1,0.1,0.2,0.2,0.4,0.3c0.1,0.1,0.3,0.1,0.5,0.1c0.3,0,0.5-0.1,0.7-0.2c0.1-0.2,0.3-0.3,0.4-0.5v0.6h0.5v-3.3h-0.4V49.7z"/>
	<rect x="65.5" y="46.4" fill="#252128" width="0.5" height="4.7"/>
	<path fill="#252128" d="M68.6,50.7c0,0-0.1,0-0.2,0c-0.2,0-0.3,0-0.4-0.1c-0.1-0.1-0.2-0.2-0.2-0.4h-0.1v-2.1h1v-0.4h-1v-1h-0.5v1
		h-0.5v0.4h0.5v2c0,0.1,0.1,0.3,0.1,0.4c0.1,0.1,0.1,0.2,0.2,0.3c0.1,0.1,0.2,0.2,0.3,0.2c0.1,0.1,0.3,0.1,0.4,0.1
		c0.1,0,0.2,0,0.3,0s0.2-0.1,0.3-0.1v-0.4C68.8,50.7,68.7,50.7,68.6,50.7z"/>
	<path fill="#252128" d="M72.3,48.1c-0.1-0.2-0.3-0.3-0.5-0.4c-0.2-0.1-0.5-0.1-0.7-0.1c-0.3,0-0.5,0-0.7,0.1c-0.2,0.1-0.3,0.2-0.5,0.4
		c-0.2,0.2-0.3,0.4-0.4,0.6c-0.1,0.2-0.1,0.5-0.1,0.7c0,0.3,0,0.5,0.1,0.7c0.1,0.2,0.2,0.3,0.4,0.5c0.1,0.2,0.3,0.3,0.5,0.4
		s0.5,0.1,0.7,0.1c0.3,0,0.5,0,0.7-0.1c0.2,0,0.4-0.2,0.5-0.3c0.2-0.2,0.3-0.4,0.4-0.6c0.1-0.2,0.1-0.4,0.1-0.8c0-0.3,0-0.5-0.1-0.7
		C72.6,48.4,72.4,48.3,72.3,48.1z M72.2,50c0,0.2-0.1,0.3-0.2,0.4c-0.1,0.1-0.3,0.2-0.4,0.3c-0.2,0.1-0.3,0.1-0.5,0.1
		c-0.2,0-0.4,0-0.5-0.1c-0.2-0.1-0.3-0.2-0.4-0.3C70,50.3,70,50.2,69.9,50c-0.1-0.2-0.1-0.3-0.1-0.5s0-0.3,0.1-0.5
		c0-0.1,0.1-0.3,0.2-0.4c0.1-0.1,0.3-0.2,0.4-0.3c0.2-0.1,0.3-0.1,0.5-0.1s0.4,0,0.5,0.1c0.2,0.1,0.3,0.2,0.4,0.3
		c0.2,0.1,0.2,0.2,0.3,0.4c0.1,0.1,0.1,0.3,0.1,0.5S72.3,49.8,72.2,50z"/>
	<path fill="#252128" d="M74.7,48c-0.1,0.1-0.2,0.2-0.3,0.3c-0.1,0.1-0.1,0.3-0.2,0.4v-0.9h-0.5v3.3h0.5v-1.3c0-0.3,0-0.5,0.1-0.7
		c0.1-0.2,0.2-0.4,0.3-0.5c0.1-0.1,0.2-0.2,0.4-0.3c0.2-0.1,0.3-0.1,0.5-0.1v-0.5c-0.1,0-0.3,0.1-0.4,0.1
		C74.9,47.9,74.8,47.9,74.7,48z"/>
	<rect x="76.3" y="46.6" fill="#252128" width="0.6" height="0.5"/>
	<rect x="76.4" y="47.8" fill="#252128" width="0.5" height="3.3"/>
	<path fill="#252128" d="M79.2,47.7c-0.2,0-0.4,0.1-0.6,0.1c-0.2,0-0.4,0.1-0.6,0.2l0.2,0.5c0.2-0.1,0.3-0.2,0.5-0.2
		c0.1-0.1,0.3-0.1,0.4-0.3c0.3,0,0.5,0,0.7,0.2s0.3,0.4,0.3,0.7V49c-0.2,0-0.3-0.1-0.5-0.1c-0.2,0-0.4,0-0.6,0S78.6,49,78.4,49
		c-0.1,0-0.3,0.1-0.4,0.2c-0.1,0.1-0.2,0.1-0.3,0.3c-0.1,0.2-0.1,0.3-0.1,0.5s0,0.4,0.1,0.5c0.1,0.1,0.2,0.2,0.3,0.3
		c0.1,0.1,0.3,0.2,0.4,0.2c0.2,0.1,0.3,0.1,0.5,0.1c0.3,0,0.5-0.1,0.7-0.2c0.2-0.1,0.4-0.3,0.5-0.4V51h0.5v-2c0-0.4-0.2-0.8-0.4-1
		S79.7,47.7,79.2,47.7z M80.3,49.7c0,0.2,0,0.3-0.1,0.4c0,0.1-0.1,0.2-0.2,0.3c-0.1,0.1-0.3,0.2-0.4,0.2c-0.1,0.1-0.2,0.1-0.4,0.1
		c-0.1,0-0.2,0-0.3,0c-0.1,0-0.2-0.1-0.3-0.1c-0.1,0-0.2-0.1-0.2-0.2c-0.1-0.1-0.1-0.2-0.1-0.3c0-0.2,0-0.4,0.2-0.5
		c0.2-0.1,0.4-0.2,0.9-0.3c0.2,0,0.3,0,0.5,0c0.1,0,0.3,0.1,0.4,0.1V49.7z"/>
</g>
</svg>
