<svg xmlns="http://www.w3.org/2000/svg" width="120" height="80" viewBox="0 0 120 80" style="enable-background:new 0 0 120 80" xml:space="preserve"><g class="destaque" fill="#34AEB5"><path d="M95.7 39.2c-.9.3-1.6.8-2.1 1.6 0-.6-.1-1.1-.1-1.7h-2.4v11.3h2.8V44.3c0-1.3.9-2.4 2.2-2.7.7-.2 1.4-.1 2.1.1.1-.9.1-1.8.2-2.7-.9-.1-1.8-.1-2.7.2M100.3 39.2h2.7v11.3h-2.7zM101.7 33.8c-1.1 0-1.9.7-2 1.7 0 1 .8 1.8 1.8 1.8 1.1 0 1.9-.7 2-1.7s-.7-1.8-1.8-1.8"/><path d="M117.9 44c-.3-2.5-2.6-4.6-5.3-4.9-.3 0-.5-.2-.6-.5-.9-2.4-2-4.6-3.4-6.6-.6-1-2.2-2.7-2.2-2.7-.9-1-1.8-1.9-2.9-2.7-4.8-3.9-10.3-5.9-16.5-6.4-3.5-.3-6.9 0-10.3.8-8.6 2.2-14.9 7.1-18.8 14.9-.1.1-.1.2-.2.4h1.9c.2 0 .4-.1.5-.3 1.8-3.2 4.2-5.8 7.3-8 7.3-5.1 15.4-6.6 24.1-4.5 3.9.9 7.2 2.5 10 4.7 1.5 1.2 2.8 2.5 4 4 1.2 1.6 2.3 3.3 3.2 5.2.3.6.5 1.3.8 1.9-2.8 1.2-4.3 3.3-3.9 6.3s2.4 4.6 5.4 5.1c-.2 3.1-.7 6.2-1.7 9.3h1.8c.2 0 .4-.1.4-.3.4-1.2.8-2.3 1.2-3.5.5-1.8.8-3.5 1-5.4 0-.2 0-.4.3-.4 2.8-1 4.3-3.5 3.9-6.4zm-6.1 4.3c-1.9 0-3.5-1.5-3.4-3.4 0-1.9 1.5-3.4 3.5-3.4 1.9 0 3.4 1.6 3.4 3.5-.1 1.8-1.6 3.3-3.5 3.3z"/></g><g class="base" fill="#1E3D71"><path d="M12 34.2c-1.2-.6-2.4-.8-3.7-.8H1.9v17.2h2.8v-5.2h.8c1.4 0 2.8 0 4.1-.2 1.4-.1 2.7-.7 3.7-1.6 1.4-1.2 1.8-2.8 1.7-4.5 0-2.3-1-3.9-3-4.9m0 6.4c-.4 1.2-1.4 1.8-2.6 2.1-.4.1-.8.1-1.2.1H4.9v-7c1.5.1 3.1-.2 4.6.2 2.6.7 3.1 2.9 2.5 4.6M32.4 40.4c-.1-.1-.2-.1-.2-.2-2.3-1.9-6-1.7-7.9.5-1.5 1.6-1.8 3.6-1.3 5.6.9 3.7 4.6 5.1 7.7 3.9.7-.3 1.3-.7 1.9-1.3 0 .5.1 1 .1 1.5H35V39.2h-2.5c0 .4-.1.8-.1 1.2m-3.5 7.9c-1.9 0-3.4-1.5-3.4-3.4s1.5-3.4 3.4-3.4c2 0 3.4 1.5 3.4 3.5.1 1.9-1.4 3.3-3.4 3.3M85.3 40.4c-.1-.1-.2-.2-.3-.2-2.2-1.8-5.6-1.6-7.6.3-1.9 1.8-2.3 4.9-1.1 7.3 1.9 3.6 6.6 3.8 8.9 1.4 0 0 .1-.1.2-.1 0 .5.1 1 .1 1.4h2.4V39.2h-2.5c0 .4-.1.8-.1 1.2m-2.9 7.8c-1.9.2-3.4-.7-3.9-2.4-.5-1.9.6-3.8 2.4-4.2 2.1-.5 4.4.7 4.3 3.4 0 1.7-1.1 3-2.8 3.2M62.1 40.6c-1.7-1.8-4.8-2.1-7.2-.8-1.8 1-2.7 2.5-2.9 4.4-.3 2.6 1.1 5.1 3.6 6.1 1.6.6 3.2.6 4.9.3 1-.2 1.9-.7 2.6-1.3-.4-.7-.8-1.3-1.2-2-.3.2-.5.4-.7.5-1.6 1-3.7 1-5.1-.1-.6-.5-1.1-1.1-1.3-1.9h8.9v-1.1c-.1-1.6-.5-3-1.6-4.1M61 43.7h-6.1c.2-1.3 1.5-2.7 3.7-2.5 1.3.2 2.5 1.4 2.4 2.5M49.7 43.4c-.3-2.6-2.2-4.4-4.9-4.5-1.7 0-3.1.4-4.2 1.7h-.1c0-.5-.1-1-.1-1.5h-2.1v11.3H41v-4.6c0-.8 0-1.6.1-2.3.2-1.3 1.4-2.1 2.6-2.2 1.5-.1 2.6.6 3 1.9.1.4.2.9.2 1.3v6h2.8v-7.1M74 47.5c0 .1 0 .1 0 0-.2.1-.2.1-.3.2-.7.5-1.5.7-2.3.6-1-.1-1.7-.6-1.7-1.6v-5.1s0-.1.1-.2h4.5v-2.3h-4.5v-3.8H67v3.8h-2.4v2.3h2.3v5.4c0 1.9 1.2 3.3 3 3.7.6.1 1.3.2 2 .1 1.1 0 2-.4 2.9-1 .1-.1.2-.1.1-.3-.3-.5-.6-1.1-.9-1.8M17.5 33.1h2.7v17.4h-2.7zM83.9 33.3l-4.8 3c.3.5.6 1 1 1.6 1.7-.8 3.4-1.6 5.1-2.5-.4-.7-.9-1.4-1.3-2.1"/></g></svg>