<svg xmlns="http://www.w3.org/2000/svg" viewBox="0 0 120 80" style="enable-background:new 0 0 120 80" xml:space="preserve"><g class="destaque" fill="#ECA82A"><path d="M10.2 42v10.9l5.5-5.5zM24.4 52.9H36V30.4L13.5 52.9z"/><path d="M5 21.9v36.2h36.2V21.9H5zm33.3 33.3H7.9V36.4l9.4 9.4 20.9-20.9v30.3h.1z"/></g><g class="base" fill="#252128"><path d="M61.5 42.9V28.8h-4.1L54 34.2l-3.4-5.4h-4.1v14h3.8v-8l3.6 5.5h.1l3.6-5.5v8.1zM71.8 39.2c-.8.8-1.5 1.1-2.4 1.1-1.2 0-2.1-.6-2.4-1.8h7.3v-.8c0-3.1-1.7-5.9-5.5-5.9-3.2 0-5.5 2.5-5.5 5.7 0 3.4 2.4 5.6 5.9 5.6 2.1 0 3.7-.9 4.7-2.2l-2.1-1.7zm-3-4.6c1.1 0 1.8.8 1.9 2h-3.8c.2-1.2.9-2 1.9-2zM79.7 34.2V32h-3.8v10.9h3.8v-3.4c0-2.6 1.1-3.7 3.1-3.7h.3v-4c-1.8-.1-2.8.9-3.4 2.4zM89.8 31.8c-3.5 0-6 2.6-6 5.7s2.5 5.6 6 5.6 6-2.6 6-5.7c0-3-2.5-5.6-6-5.6zm0 8.1c-1.3 0-2.3-1.2-2.3-2.5s.9-2.4 2.3-2.4c1.3 0 2.3 1.1 2.3 2.5 0 1.3-.9 2.4-2.3 2.4zM111.2 31.8c-1.5 0-2.7.7-3.6 1.8-.5-1.2-1.7-1.8-3.1-1.8-1.5 0-2.5.8-3.2 1.7V32h-3.9v10.9h3.8V37c0-1.2.6-1.8 1.5-1.8s1.5.6 1.5 1.8v5.9h3.8V37c0-1.2.7-1.8 1.6-1.8.9 0 1.5.6 1.5 1.8v5.9h3.8v-7.1c0-2.6-1.4-4-3.7-4zM48.9 50.6c-.2.1-.4.1-.6.1s-.4 0-.5-.1c-.2-.1-.3-.2-.4-.3-.2-.1-.2-.2-.3-.4-.1-.2-.1-.4-.1-.5 0-.1 0-.3.1-.6 0-.1.1-.3.2-.4.1-.1.3-.2.4-.3.2-.1.3-.1.5-.1.3 0 .4 0 .6.1l.4.4.3-.3c0-.1-.1-.1-.2-.2s-.2-.1-.3-.2c-.2 0-.3-.1-.4-.1h-.4c-.3 0-.5 0-.7.1-.2.1-.3.2-.5.4s-.3.4-.4.6c-.1.2-.1.5-.1.7 0 .3 0 .5.1.7.1.2.2.3.4.5.1.2.3.3.5.4.2.1.5.1.7.1.3 0 .6-.1.8-.2s.4-.3.6-.5l-.3-.3c-.1.2-.2.3-.4.4zM53.3 48.7c-.1-.2-.3-.3-.4-.5-.1-.2-.3-.3-.5-.4-.2-.1-.5-.1-.7-.1-.3 0-.5 0-.7.1-.2.1-.3.2-.5.4s-.3.4-.4.6c-.1.2-.1.5-.1.7 0 .3 0 .5.1.7.1.2.2.3.4.5.1.2.3.3.5.4.2.1.5.1.7.1.3 0 .5 0 .7-.1.2-.1.3-.2.5-.4s.3-.4.4-.6c.1-.2.2-.4.1-.7 0-.3 0-.5-.1-.7zm-.4 1.3c0 .2-.1.3-.2.4-.1.1-.3.2-.4.3-.2.1-.3.1-.5.1s-.4 0-.5-.1c-.2-.1-.3-.2-.4-.3-.2-.1-.2-.2-.3-.4-.1-.2-.1-.3-.1-.5s0-.3.1-.5c0-.1.1-.3.2-.4.1-.1.3-.2.4-.3.2-.1.3-.1.5-.1s.4 0 .5.1c.2.1.3.2.4.3.2.1.2.2.3.4 0 .1.1.3.1.5s0 .3-.1.5zM56.9 48.1c-.1-.1-.2-.2-.4-.3-.1-.1-.3-.1-.5-.1-.3 0-.5.1-.7.2-.1.2-.3.3-.4.5v-.6h-.5v3.3h.5l-.1-1.9c0-.1.1-.3.1-.4s.1-.2.2-.3c.1-.1.2-.2.3-.2.1-.1.3-.1.4-.1.3 0 .5.1.7.3.1.2.2.4.2.7v1.9h.5V49c0-.2 0-.3-.1-.5 0-.1-.1-.3-.2-.4zM60.4 49.7c0-.1-.1-.2-.2-.3-.1-.1-.2-.2-.3-.2-.1 0-.3-.1-.4-.1s-.2-.1-.3-.1c-.1 0-.2-.1-.3-.1-.1-.1-.2-.1-.2-.2-.1-.1-.1-.1-.1-.2s.1-.2.2-.3c.1-.1.3-.1.5-.1s.3.1.5.1.3.1.5.2l.2-.4-.6-.3c-.2-.1-.4-.1-.6-.1s-.4.1-.5.1c-.2.1-.3.1-.4.2-.1.1-.1.2-.2.3-.1.1-.1.3-.1.4 0 .2 0 .3.1.4l.3.3c.2.1.3.2.4.2.1 0 .3.1.4.1.1 0 .2.1.3.1.1 0 .2 0 .3.1.1.1.2.1.2.2.1 0 .1.1.1.2 0 .2-.1.3-.2.4-.1.1-.3.1-.5.1s-.4 0-.6-.1l-.6-.3-.2.4c.1.2.4.3.6.4.2.1.5.1.7.1.2 0 .4-.1.5-.1.2 0 .3-.1.4-.2.1-.1.1-.2.2-.3 0-.1.1-.3 0-.5 0-.2 0-.3-.1-.4zM63.9 49.7c0 .1 0 .3-.1.4 0 .1-.1.2-.2.3-.1.1-.2.2-.3.2-.1.1-.3.1-.4.1-.3 0-.5-.1-.7-.3-.1-.2-.2-.4-.2-.7v-1.9h-.5v2.1c0 .2 0 .3.1.5 0 .1.1.3.2.4.1.1.2.2.4.3.1.1.3.1.5.1.3 0 .5-.1.7-.2.1-.2.3-.3.4-.5v.6h.5v-3.3h-.4v1.9zM65.5 46.4h.5v4.7h-.5zM68.6 50.7h-.2c-.2 0-.3 0-.4-.1-.1-.1-.2-.2-.2-.4h-.1v-2.1h1v-.4h-1v-1h-.5v1h-.5v.4h.5v2c0 .1.1.3.1.4.1.1.1.2.2.3.1.1.2.2.3.2.1.1.3.1.4.1h.3c.1 0 .2-.1.3-.1v-.4c0 .1-.1.1-.2.1zM72.3 48.1c-.1-.2-.3-.3-.5-.4-.2-.1-.5-.1-.7-.1-.3 0-.5 0-.7.1-.2.1-.3.2-.5.4s-.3.4-.4.6c-.1.2-.1.5-.1.7 0 .3 0 .5.1.7.1.2.2.3.4.5.1.2.3.3.5.4s.5.1.7.1c.3 0 .5 0 .7-.1.2 0 .4-.2.5-.3.2-.2.3-.4.4-.6.1-.2.1-.4.1-.8 0-.3 0-.5-.1-.7-.1-.2-.3-.3-.4-.5zm-.1 1.9c0 .2-.1.3-.2.4-.1.1-.3.2-.4.3-.2.1-.3.1-.5.1s-.4 0-.5-.1c-.2-.1-.3-.2-.4-.3-.2-.1-.2-.2-.3-.4-.1-.2-.1-.3-.1-.5s0-.3.1-.5c0-.1.1-.3.2-.4.1-.1.3-.2.4-.3.2-.1.3-.1.5-.1s.4 0 .5.1c.2.1.3.2.4.3.2.1.2.2.3.4.1.1.1.3.1.5s0 .3-.1.5zM74.7 48l-.3.3c-.1.1-.1.3-.2.4v-.9h-.5v3.3h.5v-1.3c0-.3 0-.5.1-.7.1-.2.2-.4.3-.5.1-.1.2-.2.4-.3.2-.1.3-.1.5-.1v-.5c-.1 0-.3.1-.4.1-.2.1-.3.1-.4.2zM76.3 46.6h.6v.5h-.6zM76.4 47.8h.5v3.3h-.5zM79.2 47.7c-.2 0-.4.1-.6.1-.2 0-.4.1-.6.2l.2.5c.2-.1.3-.2.5-.2.1-.1.3-.1.4-.3.3 0 .5 0 .7.2s.3.4.3.7v.1c-.2 0-.3-.1-.5-.1H79c-.2 0-.4.1-.6.1-.1 0-.3.1-.4.2-.1.1-.2.1-.3.3-.1.2-.1.3-.1.5s0 .4.1.5l.3.3c.1.1.3.2.4.2.2.1.3.1.5.1.3 0 .5-.1.7-.2.2-.1.4-.3.5-.4v.5h.5v-2c0-.4-.2-.8-.4-1s-.5-.3-1-.3zm1.1 2c0 .2 0 .3-.1.4 0 .1-.1.2-.2.3-.1.1-.3.2-.4.2-.1.1-.2.1-.4.1h-.3c-.1 0-.2-.1-.3-.1-.1 0-.2-.1-.2-.2-.1-.1-.1-.2-.1-.3 0-.2 0-.4.2-.5.2-.1.4-.2.9-.3h.5c.1 0 .3.1.4.1v.3z"/></g></svg>