<?xml version="1.0" encoding="utf-8"?>
<!-- Generator: Adobe Illustrator 24.0.1, SVG Export Plug-In . SVG Version: 6.00 Build 0)  -->
<svg version="1.1" id="Layer_1" xmlns="http://www.w3.org/2000/svg" xmlns:xlink="http://www.w3.org/1999/xlink" x="0px" y="0px"
	 viewBox="0 0 120 80" style="enable-background:new 0 0 120 80;" xml:space="preserve">
<style type="text/css">
	.st0{fill:#1E3D71;}
	.st1{fill:#34AEB5;}
</style>
<g>
	<path class="st0" d="M12,34.2c-1.2-0.6-2.4-0.8-3.7-0.8c-2,0-4,0-6.1,0c-0.1,0-0.2,0-0.3,0v17.2h2.8v-5.2c0.3,0,0.5,0,0.8,0
		c1.4,0,2.8,0,4.1-0.2c1.4-0.1,2.7-0.7,3.7-1.6c1.4-1.2,1.8-2.8,1.7-4.5C15,36.8,14,35.2,12,34.2 M12,40.6c-0.4,1.2-1.4,1.8-2.6,2.1
		c-0.4,0.1-0.8,0.1-1.2,0.1c-1.1,0-2.2,0-3.3,0v-7C6.4,35.9,8,35.6,9.5,36C12.1,36.7,12.6,38.9,12,40.6"/>
	<path class="st0" d="M32.4,40.4c-0.1-0.1-0.2-0.1-0.2-0.2c-2.3-1.9-6-1.7-7.9,0.5c-1.5,1.6-1.8,3.6-1.3,5.6
		c0.9,3.7,4.6,5.1,7.7,3.9c0.7-0.3,1.3-0.7,1.9-1.3c0,0.5,0.1,1,0.1,1.5H35V39.2h-2.5C32.5,39.6,32.4,40,32.4,40.4 M28.9,48.3
		c-1.9,0-3.4-1.5-3.4-3.4c0-1.9,1.5-3.4,3.4-3.4c2,0,3.4,1.5,3.4,3.5C32.4,46.9,30.9,48.3,28.9,48.3"/>
	<path class="st0" d="M85.3,40.4c-0.1-0.1-0.2-0.2-0.3-0.2c-2.2-1.8-5.6-1.6-7.6,0.3c-1.9,1.8-2.3,4.9-1.1,7.3
		c1.9,3.6,6.6,3.8,8.9,1.4c0,0,0.1-0.1,0.2-0.1c0,0.5,0.1,1,0.1,1.4h2.4V39.2h-2.5C85.4,39.6,85.3,40,85.3,40.4 M82.4,48.2
		c-1.9,0.2-3.4-0.7-3.9-2.4c-0.5-1.9,0.6-3.8,2.4-4.2c2.1-0.5,4.4,0.7,4.3,3.4C85.2,46.7,84.1,48,82.4,48.2"/>
	<path class="st0" d="M62.1,40.6c-1.7-1.8-4.8-2.1-7.2-0.8c-1.8,1-2.7,2.5-2.9,4.4c-0.3,2.6,1.1,5.1,3.6,6.1
		c1.6,0.6,3.2,0.6,4.9,0.3c1-0.2,1.9-0.7,2.6-1.3c-0.4-0.7-0.8-1.3-1.2-2c-0.3,0.2-0.5,0.4-0.7,0.5c-1.6,1-3.7,1-5.1-0.1
		c-0.6-0.5-1.1-1.1-1.3-1.9h8.9c0-0.4,0-0.8,0-1.1C63.6,43.1,63.2,41.7,62.1,40.6 M61,43.7h-6.1c0.2-1.3,1.5-2.7,3.7-2.5
		C59.9,41.4,61.1,42.6,61,43.7"/>
	<path class="st0" d="M49.7,43.4c-0.3-2.6-2.2-4.4-4.9-4.5c-1.7,0-3.1,0.4-4.2,1.7c0,0-0.1,0-0.1,0c0-0.5-0.1-1-0.1-1.5h-2.1v11.3
		h2.7c0-0.1,0-0.2,0-0.3c0-1.4,0-2.9,0-4.3c0-0.8,0-1.6,0.1-2.3c0.2-1.3,1.4-2.1,2.6-2.2c1.5-0.1,2.6,0.6,3,1.9
		c0.1,0.4,0.2,0.9,0.2,1.3c0,1.9,0,3.7,0,5.6v0.4h2.8v-0.4c0-1.9,0-3.7,0-5.6C49.7,44.2,49.7,43.8,49.7,43.4"/>
	<path class="st0" d="M74,47.5C74,47.6,74,47.6,74,47.5c-0.2,0.1-0.2,0.1-0.3,0.2c-0.7,0.5-1.5,0.7-2.3,0.6c-1-0.1-1.7-0.6-1.7-1.6
		c0-1.7,0-3.4,0-5.1c0,0,0-0.1,0.1-0.2h4.5v-2.3h-4.5v-3.8H67v3.8h-2.4v2.3h2.3v0.4c0,1.7,0,3.3,0,5c0,1.9,1.2,3.3,3,3.7
		c0.6,0.1,1.3,0.2,2,0.1c1.1,0,2-0.4,2.9-1c0.1-0.1,0.2-0.1,0.1-0.3C74.6,48.8,74.3,48.2,74,47.5"/>
	<rect x="17.5" y="33.1" class="st0" width="2.7" height="17.4"/>
	<path class="st1" d="M95.7,39.2c-0.9,0.3-1.6,0.8-2.1,1.6c0-0.6-0.1-1.1-0.1-1.7h-2.4v11.3h2.8v-0.4c0-1.9,0-3.8,0-5.7
		c0-1.3,0.9-2.4,2.2-2.7c0.7-0.2,1.4-0.1,2.1,0.1c0.1-0.9,0.1-1.8,0.2-2.7C97.5,38.9,96.6,38.9,95.7,39.2"/>
	<rect x="100.3" y="39.2" class="st1" width="2.7" height="11.3"/>
	<path class="st0" d="M83.9,33.3c-1.6,1-3.2,2-4.8,3c0.3,0.5,0.6,1,1,1.6c1.7-0.8,3.4-1.6,5.1-2.5C84.8,34.7,84.3,34,83.9,33.3"/>
	<path class="st1" d="M101.7,33.8c-1.1,0-1.9,0.7-2,1.7c0,1,0.8,1.8,1.8,1.8c1.1,0,1.9-0.7,2-1.7C103.6,34.6,102.8,33.8,101.7,33.8"
		/>
	<path class="st1" d="M117.9,44c-0.3-2.5-2.6-4.6-5.3-4.9c-0.3,0-0.5-0.2-0.6-0.5c-0.9-2.4-2-4.6-3.4-6.6c-0.6-1-2.2-2.7-2.2-2.7
		c-0.9-1-1.8-1.9-2.9-2.7c-4.8-3.9-10.3-5.9-16.5-6.4c-3.5-0.3-6.9,0-10.3,0.8c-8.6,2.2-14.9,7.1-18.8,14.9
		c-0.1,0.1-0.1,0.2-0.2,0.4c0.7,0,1.3,0,1.9,0c0.2,0,0.4-0.1,0.5-0.3c1.8-3.2,4.2-5.8,7.3-8c7.3-5.1,15.4-6.6,24.1-4.5
		c3.9,0.9,7.2,2.5,10,4.7c1.5,1.2,2.8,2.5,4,4c1.2,1.6,2.3,3.3,3.2,5.2c0.3,0.6,0.5,1.3,0.8,1.9c-2.8,1.2-4.3,3.3-3.9,6.3
		c0.4,3,2.4,4.6,5.4,5.1c-0.2,3.1-0.7,6.2-1.7,9.3c0.6,0,1.2,0,1.8,0c0.2,0,0.4-0.1,0.4-0.3c0.4-1.2,0.8-2.3,1.2-3.5
		c0.5-1.8,0.8-3.5,1-5.4c0-0.2,0-0.4,0.3-0.4C116.8,49.4,118.3,46.9,117.9,44z M111.8,48.3c-1.9,0-3.5-1.5-3.4-3.4
		c0-1.9,1.5-3.4,3.5-3.4c1.9,0,3.4,1.6,3.4,3.5C115.2,46.8,113.7,48.3,111.8,48.3z"/>
</g>
</svg>
