<svg xmlns="http://www.w3.org/2000/svg" width="120" height="80" viewBox="0 0 120 80" xml:space="preserve"><g class="destaque" fill="#FDBD26"><path d="M31.3 28.9c-.6 0-1 .2-1.3.5-.3.3-.5.8-.5 1.4v.5h-.8v.7h.8v4.9h.9V32h1.8v-.7h-1.8v-.5c0-.8.3-1.2 1-1.2h.4c.1 0 .2.1.4.1V29c-.1 0-.3-.1-.4-.1h-.5zM35.1 31.2c-.4 0-.8 0-1.1.1-.4 0-.7.2-1 .3l.3.7c.2-.1.5-.2.8-.3.3-.1.6-.1.9-.1.6 0 1 .1 1.2.4.3.3.5.7.5 1.2v.2c-.3-.1-.5-.2-.8-.2-.3-.1-.6-.1-1-.1s-.7 0-1 .1c-.3 0-.6.1-.8.3-.2.2-.4.4-.5.6-.1.2-.2.5-.2.8s.1.6.2.8c.1.3.3.5.5.6.2.1.4.2.7.3.3.1.5.1.8.1.5 0 1-.1 1.3-.3.3-.2.6-.4.8-.7v1h.8v-3.5c0-.8-.2-1.3-.6-1.7-.4-.4-1-.6-1.8-.6zm1.8 3.7c0 .2-.1.4-.2.6-.1.2-.2.4-.4.5l-.6.3c-.3.1-.5.1-.8.1-.2 0-.4 0-.6-.1-.2 0-.4-.1-.5-.2-.1-.1-.2-.3-.3-.4-.1-.2-.1-.3-.1-.5 0-.4.1-.7.4-.9s.7-.3 1.4-.2c.4 0 .7 0 1 .1.2.1.5.1.7.2v.5zM39.4 28.9h.9v8h-.9zM44.2 31.2c-.4 0-.8 0-1.1.1-.4 0-.7.2-1 .3l.3.7c.2-.1.5-.2.8-.3s.6-.1.8-.1c.6 0 1 .1 1.3.4s.5.7.5 1.2v.2c-.3-.1-.5-.2-.8-.2-.3-.1-.6-.1-1-.1s-.7 0-1 .1c-.3 0-.6.1-.8.3s-.4.4-.5.6c-.1.2-.2.5-.2.8s.1.6.2.8c.1.3.3.5.5.6.2.1.4.2.7.3.3.1.5.1.8.1.5 0 1-.1 1.3-.3s.6-.4.8-.7v1h.8v-3.5c0-.8-.2-1.3-.6-1.7-.4-.4-1-.6-1.8-.6zm1.9 3.7c0 .2-.1.4-.2.6-.1.2-.2.4-.4.5l-.6.3c-.3.1-.5.1-.8.1-.2 0-.4 0-.6-.1-.2 0-.4-.1-.5-.2-.1-.1-.2-.3-.3-.4-.1-.2-.1-.3-.1-.5 0-.4.1-.7.4-.9.2-.2.7-.3 1.4-.2.4 0 .7 0 1 .1.2.1.5.1.7.2v.5zM52.9 31.8c-.2-.2-.4-.4-.7-.5-.2-.1-.5-.2-.9-.2-.5 0-.9.1-1.2.3-.4.2-.6.5-.8.8v-1h-.9v5.7h.8v-3.2c0-.2 0-.5.1-.7.1-.3.2-.4.4-.6.2-.2.4-.3.6-.4s.5-.1.7-.1c.5 0 .9.2 1.2.5.3.3.4.7.4 1.2v3.3h.9v-3.5c0-.3-.1-.6-.2-.9-.1-.3-.2-.5-.4-.7zM59.8 32.5c-.1-.2-.2-.3-.4-.5s-.3-.3-.5-.4l-.6-.3c-.2-.1-.4-.1-.7-.1-.3 0-.7.1-1 .2-.3.2-.6.3-.9.6-.2.2-.4.5-.6.9-.1.3-.2.7-.2 1.2 0 .4 0 .8.2 1.2.1.3.3.6.6.9s.6.5.9.6c.3.1.6.2 1 .2h.7l.6-.3c.2-.1.4-.2.5-.4.1-.2.3-.3.4-.5v1.3h.9v-8h-.9v3.4zm0 2.4c-.1.3-.3.5-.5.7-.2.1-.4.3-.7.4-.3.1-.5.2-.8.2s-.6-.1-.8-.2c-.3-.1-.5-.2-.7-.4-.1-.2-.3-.4-.4-.7-.1-.3-.2-.6-.2-.9s.1-.6.2-.9c.1-.3.2-.5.4-.7.1-.2.4-.3.6-.4.2-.1.5-.1.8-.1s.5.1.8.2c.3.1.5.2.7.4s.4.4.5.7c.1.2.3.5.3.8s-.1.6-.2.9zM67.3 32.1c-.3-.2-.6-.4-1-.6-.4-.1-.8-.2-1.2-.2-.4 0-.8 0-1.2.2-.4.1-.7.3-1 .6-.2.2-.5.5-.6.9-.1.3-.2.7-.2 1.1 0 .4 0 .7.2 1.1.1.3.3.6.6.9.3.2.6.4 1 .6.4.1.8.2 1.2.2.4 0 .8 0 1.2-.2.4-.1.7-.3 1-.6.2-.2.4-.5.6-.9.2-.4.2-.7.2-1.1 0-.4-.1-.7-.2-1.1-.1-.3-.3-.6-.6-.9zm-.1 2.8c-.1.3-.2.5-.4.7-.2.2-.4.4-.7.5-.3.1-.6.2-.9.2-.4 0-.6-.1-.9-.2-.3-.1-.5-.3-.7-.5-.1-.2-.3-.4-.4-.7-.1-.3-.2-.6-.2-.9v-.8c.1-.3.2-.5.4-.7.2-.2.4-.4.7-.5.3-.1.6-.2.9-.2.4 0 .6.1.9.2.3.1.5.3.7.5.2.2.4.4.5.7.1.3.2.6.3.8 0 .3-.1.6-.2.9zM77.2 32.1l-.9-.6c-.3-.1-.7-.2-1.1-.2-.4 0-.8 0-1.1.2-.4.1-.7.3-.9.6-.3.2-.5.5-.6.9-.1.4-.2.8-.2 1.2 0 .4 0 .8.2 1.2.1.3.3.6.6.9.2.3.5.5.9.6.3.1.7.2 1.1.2.6 0 1-.1 1.4-.3.4-.2.7-.5 1-.8l-.5-.5c-.2.3-.5.5-.8.6-.2.1-.6.2-1 .2-.2 0-.5 0-.7-.1-.2-.1-.4-.2-.6-.4s-.4-.4-.5-.6c-.1-.3-.2-.5-.2-.7h4.6v-.2c0-.4-.1-.8-.2-1.2-.1-.4-.3-.7-.5-1zm-4.1 1.6c0-.3.1-.6.2-.8.1-.2.2-.4.4-.6s.4-.3.6-.4c.2-.1.4-.1.7-.1s.6.1.8.2c.3.1.4.2.6.4.2.2.3.4.4.6.1.2.2.4.2.7h-3.9zM87.5 31.7c-.4-.4-.9-.6-1.6-.6-.3 0-.5.1-.7.1s-.4.1-.6.2l-.4.4c-.1.1-.3.3-.1.6-.2-.3-.4-.6-.7-.8-.3-.2-.7-.3-1.2-.3-.3 0-.5 0-.7.1-.2 0-.4.1-.5.2-.2.1-.3.2-.4.3-.1.1-.2.3-.3.4v-1h-.9V37h.9v-3.2c0-.2 0-.5.1-.7 0-.3.2-.4.3-.6.1-.2.3-.3.5-.4.2-.1.4-.1.6-.1.5 0 .8.1 1.1.4.3.3.4.7.4 1.2v3.3h.9v-3.3c0-.2 0-.5.1-.7 0-.3.2-.5.3-.6.1-.1.3-.2.5-.3.2-.1.4-.1.6-.1.5 0 .8.1 1.1.4s.4.8.4 1.3v3.3h.9v-3.5c0-.7-.2-1.3-.6-1.7zM13.5 28.8h2.4v3.7h-2.4zM18.5 32.5h2.9v2.6h-7.1v3.4h7.1v5.4h4.2V28.8h-7.1zM15.9 26.1h2.6v2.7h-2.6z"/></g><g class="base" fill="#314D7D"><path d="M28.7 51.1h3.1v-3.9H37v-2.5h-5.3v-1.9h5.8v-2.7h-8.8zM39 40.1h3.1v11H39zM51.5 45.9 47 40.1h-2.9v11h3V45l4.7 6.1h2.7v-11h-3zM60.3 40l-4.7 11.1h3.2l.8-2h4.3l.8 2H68L63.3 40h-3zm.3 6.8 1.2-3.1 1.2 3.1h-2.4zM76.4 45.9l-4.5-5.8H69v11h3V45l4.7 6.1h2.7v-11h-3zM86.8 48.6c-1.5 0-2.6-1.3-2.6-3 0-1.6 1.1-2.9 2.6-2.9 1 0 1.8.5 2.4 1.3l2.3-1.7c-1-1.4-2.4-2.3-4.7-2.3-3.3 0-5.8 2.5-5.8 5.7 0 2.7 1.8 4.9 4.3 5.5l-1.2 1.7 2.3 1 .9-2.5c2.1-.2 3.4-1.2 4.3-2.5l-2.3-1.6c-.7.8-1.3 1.3-2.5 1.3zM96.8 40l-4.7 11.1h3.2l.8-2h4.3l.8 2h3.3L99.8 40h-3zm.2 6.8 1.2-3.1 1.2 3.1H97zM110 44.3c-1.5-.4-1.9-.6-1.9-1.1 0-.4.4-.7 1.1-.7 1 0 2.1.4 3.1 1.1l1.5-2.2c-1.2-1-2.6-1.5-4.5-1.5-2.7 0-4.3 1.4-4.3 3.5 0 2.3 1.8 3 4.2 3.5 1.5.4 1.9.6 1.9 1.1s-.5.8-1.3.8c-1.3 0-2.5-.4-3.6-1.3l-1.7 2c1.3 1.2 3.2 1.8 5.1 1.8 2.7 0 4.5-1.3 4.5-3.6 0-2-1.6-2.8-4.1-3.4zM15.5 51H13v2.7h2.6V51h2.3v-3.7h-2.4zM10.1 47.3v-2.6h7.1v-3.4h-7.1v-5.4H5.9V51H13v-3.7z"/></g></svg>