<svg xmlns="http://www.w3.org/2000/svg" width="120" height="80" viewBox="0 0 120 80" xml:space="preserve"><path class="destaque" fill="#AA1E23" d="M30 29.7c-2.6 0-5.1 1-6.9 2.6-1.8-1.6-4.2-2.6-6.9-2.6C10.6 29.7 6 34.3 6 40s4.6 10.3 10.3 10.3c2.6 0 5.1-1 6.9-2.6 1.8 1.6 4.2 2.6 6.9 2.6 5.7 0 10.3-4.6 10.3-10.3-.2-5.7-4.8-10.3-10.4-10.3zM15.4 46.3h-5.2c-1 0-1.8-.8-1.8-1.8s.8-1.8 1.8-1.8h5.2c1.4 0 2.4-.5 2.9-1.6.5-.9.5-1.9.5-2 0-1 .8-1.8 1.8-1.8s1.8.8 1.8 1.8c0 2.9-1.9 7.2-7 7.2zm-2.3-6.5c0-1.1.9-2.1 2.1-2.1 1.1 0 2.1.9 2.1 2.1 0 1.1-.9 2.1-2.1 2.1-1.2-.1-2.1-1-2.1-2.1zm7.5-3.3h-5.2c-1.4 0-2.4.5-2.9 1.6-.5.9-.6 1.9-.6 1.9 0 1-.8 1.8-1.8 1.8S8.3 41 8.3 40c0-2.9 1.9-7.1 7-7.1h5.2c1 0 1.8.8 1.8 1.8.1 1-.7 1.8-1.7 1.8zm15.2 10.2c-1 0-1.8-.8-1.8-1.8v-5.1c0-1.8-1.5-3.3-3.3-3.3s-3.3 1.5-3.3 3.3 1.5 3.3 3.3 3.3c1 0 1.8.8 1.8 1.8s-.8 1.8-1.8 1.8c-3.8 0-6.9-3.1-6.9-6.9 0-3.8 3.1-6.9 6.9-6.9s6.9 3.1 6.9 6.9v5.1c0 1-.8 1.8-1.8 1.8z"/><g class="base" fill="#AA1E23"><path d="M65.5 37.6c0-.4-.3-.7-.7-.7-.7 0-1.3-.6-1.3-1.3s.6-1.3 1.3-1.3 1.3.6 1.3 1.3v2c0 .4.3.7.7.7.4 0 .7-.3.7-.7v-2c0-1.5-1.2-2.7-2.7-2.7s-2.7 1.2-2.7 2.7 1.2 2.7 2.7 2.7c.4 0 .7-.3.7-.7zM83.6 36.9c-.7 0-1.3-.6-1.3-1.3s.6-1.3 1.3-1.3c.7 0 1.3.6 1.3 1.3v2c0 .4.3.7.7.7.4 0 .7-.3.7-.7v-2c0-1.5-1.2-2.7-2.7-2.7s-2.7 1.2-2.7 2.7 1.2 2.7 2.7 2.7c.4 0 .7-.3.7-.7 0-.4-.4-.7-.7-.7zM105.2 37.6v-2c0-1.5-1.2-2.7-2.7-2.7s-2.7 1.2-2.7 2.7 1.2 2.7 2.7 2.7c.4 0 .7-.3.7-.7s-.3-.7-.7-.7c-.7 0-1.3-.6-1.3-1.3s.6-1.3 1.3-1.3c.7 0 1.3.6 1.3 1.3v2c0 .4.3.7.7.7.3 0 .7-.3.7-.7zM80.2 35.6c0-1.5-1.2-2.7-2.7-2.7s-2.7 1.2-2.7 2.7v3.2c0 .4.3.7.7.7s.7-.3.7-.7v-3.2c0-.7.6-1.3 1.3-1.3s1.3.6 1.3 1.3-.6 1.3-1.3 1.3c-.4 0-.7.3-.7.7s.3.7.7.7c1.5 0 2.7-1.2 2.7-2.7z"/><circle cx="54.6" cy="35.5" r=".9"/><path d="M52.5 36.4c.4 0 .8-.3.8-.8 0 0 0-.4.2-.8.2-.5.6-.7 1.2-.7h2.2c.4 0 .8-.3.8-.8 0-.4-.3-.8-.8-.8h-2.2c-2.2 0-3 1.8-3 3 0 .6.4.9.8.9zM52.5 38.3h2.2c2.2 0 3-1.8 3-3 0-.4-.3-.8-.8-.8-.4 0-.8.3-.8.8 0 0 0 .4-.2.8-.2.5-.6.7-1.2.7h-2.2c-.4 0-.8.3-.8.8 0 .4.4.7.8.7zM51.1 37.8c0-.4-.4-.8-.8-.8h-1.6c-.8 0-1.5-.7-1.5-1.5s.7-1.5 1.5-1.5h1.6c.4 0 .8-.4.8-.8s-.4-.8-.8-.8h-1.6c-1.7 0-3.1 1.4-3.1 3.1 0 1.7 1.4 3.1 3.1 3.1h1.6c.4 0 .8-.3.8-.8zM72.7 35.9v1.6c0 .4.4.8.8.8s.8-.4.8-.8v-1.6c0-1.7-1.4-3.1-3.1-3.1s-3.1 1.4-3.1 3.1v1.6c0 .4.4.8.8.8s.8-.4.8-.8v-1.6c0-.8.7-1.5 1.5-1.5s1.5.7 1.5 1.5zM69.9 41.2c-1.7 0-3.1 1.4-3.1 3.1v1.6c0 .4.4.8.8.8s.8-.4.8-.8v-1.6c0-.8.7-1.5 1.5-1.5s1.5.7 1.5 1.5v1.6c0 .4.4.8.8.8s.8-.4.8-.8v-1.6c-.1-1.7-1.4-3.1-3.1-3.1zM103.7 41.2c-1.7 0-3.1 1.4-3.1 3.1v1.6c0 .4.4.8.8.8s.8-.4.8-.8v-1.6c0-.8.7-1.5 1.5-1.5s1.5.7 1.5 1.5v1.6c0 .4.4.8.8.8s.8-.4.8-.8v-1.6c-.1-1.7-1.4-3.1-3.1-3.1zM92.8 33.6c0-.4-.4-.8-.8-.8h-1.6c-1.7 0-3.1 1.4-3.1 3.1v1.6c0 .4.4.8.8.8s.8-.4.8-.8v-1.6c0-.8.7-1.5 1.5-1.5H92c.5 0 .8-.3.8-.8zM78.7 41.2h-1.6c-1.7 0-3.1 1.4-3.1 3.1v1.6c0 .4.4.8.8.8s.8-.4.8-.8v-1.6c0-.8.7-1.5 1.5-1.5h1.6c.4 0 .8-.4.8-.8s-.4-.8-.8-.8zM61.1 38.5c.4 0 .8-.4.8-.8s-.4-.8-.8-.8c-.8 0-1.5-.7-1.5-1.5V32c0-.4-.4-.8-.8-.8s-.8.4-.8.8v3.4c.1 1.7 1.4 3.1 3.1 3.1z"/><path d="M48 35.6c0 .4.3.7.7.7s.7-.3.7-.7-.3-.7-.7-.7-.7.3-.7.7zM77 43.6c-.4 0-.7.3-.7.7s.4.7.7.7.7-.3.7-.7-.3-.7-.7-.7zM51.2 42c0-.4-.4-.8-.8-.8h-1.6c-1.7 0-3.1 1.4-3.1 3.1s1.4 3.1 3.1 3.1h1.6c.4 0 .8-.4.8-.8s-.4-.8-.8-.8h-1.6c-.8 0-1.5-.7-1.5-1.5s.7-1.5 1.5-1.5h1.6c.4 0 .8-.3.8-.8z"/><path d="M48.1 44.3c0 .4.3.7.7.7s.7-.3.7-.7-.3-.7-.7-.7c-.3 0-.7.3-.7.7zM86.1 42c0-.4-.4-.8-.8-.8h-1.6c-1.7 0-3.1 1.4-3.1 3.1s1.4 3.1 3.1 3.1h1.6c.4 0 .8-.4.8-.8s-.4-.8-.8-.8h-1.6c-.8 0-1.5-.7-1.5-1.5s.7-1.5 1.5-1.5h1.6c.5 0 .8-.3.8-.8z"/><path d="M83.1 44.3c0 .4.3.7.7.7s.7-.3.7-.7-.3-.7-.7-.7-.7.3-.7.7zM103.7 43.6c-.4 0-.7.3-.7.7s.3.7.7.7c.4 0 .7-.3.7-.7s-.3-.7-.7-.7zM61 34.2c.4 0 .7-.3.7-.7s-.3-.7-.7-.7-.7.3-.7.7.3.7.7.7zM72 37.5v-1.9c0-.4-.4-.8-.8-.8s-.8.4-.8.8v1.9c0 .4.4.8.8.8s.8-.4.8-.8zM94.4 36.8c-.4 0-.8.4-.8.8s.4.8.8.8h3.9c.4 0 .8-.4.8-.8s-.4-.8-.8-.8h-1.1v-2.4h1.1c.4 0 .8-.4.8-.8s-.4-.8-.8-.8h-3.9c-.4 0-.8.4-.8.8s.4.8.8.8h1.1v2.4h-1.1zM62.9 40.9c-1.7 0-3.1 1.4-3.1 3.1 0 1.7 1.4 3.1 3.1 3.1S66 45.7 66 44c0-1.7-1.4-3.1-3.1-3.1zm0 4.6c-.8 0-1.5-.7-1.5-1.5s.7-1.5 1.5-1.5 1.5.7 1.5 1.5-.7 1.5-1.5 1.5zM56.1 42.5c.6 0 1.1.4 1.4.9.2.4.6.6 1 .4.4-.2.6-.6.4-1-.5-1.1-1.6-1.9-2.9-1.9-1.7 0-3.1 1.4-3.1 3.1 0 1.7 1.4 3.1 3.1 3.1 1.2 0 2.3-.7 2.8-1.8.2-.4 0-.9-.4-1.1-.4-.2-.9 0-1.1.4-.2.5-.8.9-1.4.9-.8 0-1.5-.7-1.5-1.5s.9-1.5 1.7-1.5zM90.4 42.5c.6 0 1.1.4 1.4.9.2.4.6.6 1 .4.4-.2.6-.6.4-1-.5-1.1-1.6-1.9-2.9-1.9-1.7 0-3.1 1.4-3.1 3.1 0 1.7 1.4 3.1 3.1 3.1 1.2 0 2.3-.7 2.8-1.8.2-.4 0-.9-.4-1.1-.4-.2-.9 0-1.1.4-.2.5-.8.9-1.4.9-.8 0-1.5-.7-1.5-1.5s.9-1.5 1.7-1.5zM97.1 42.5c.6 0 1.1.4 1.4.9.2.4.6.6 1 .4.4-.2.6-.6.4-1-.5-1.1-1.6-1.9-2.8-1.9-1.7 0-3.1 1.4-3.1 3.1 0 1.5 1.1 2.8 2.6 3v.1l-.1.1c-.4.1-.7.5-.6 1 .1.4.4.6.8.6h.2c.1 0 .9-.2 1.2-1 .1-.2.2-.5.1-.9.8-.3 1.4-.9 1.8-1.6.2-.4 0-.9-.4-1.1-.4-.2-.9 0-1.1.4-.2.5-.8.9-1.4.9-.8 0-1.5-.7-1.5-1.5s.6-1.5 1.5-1.5zM110.9 40.9c-1.7 0-3.1 1.4-3.1 3.1 0 1.7 1.4 3.1 3.1 3.1s3.1-1.4 3.1-3.1c0-1.7-1.4-3.1-3.1-3.1zm0 4.6c-.8 0-1.5-.7-1.5-1.5s.7-1.5 1.5-1.5 1.5.7 1.5 1.5-.6 1.5-1.5 1.5zM101.5 40c-.1.4.1.9.5 1h.2c.3 0 .6-.2.7-.5.1 0 .2 0 .4.1.8.2 1.3.1 1.6-.1.6-.3.8-.9.8-1l-.8-.2-.8-.2s-.1.2-.4 0c-.7-.2-1.2-.2-1.7.1-.2.2-.4.5-.5.8z"/></g></svg>